<svg width="67" height="67" viewBox="0 0 67 67" fill="none" xmlns="http://www.w3.org/2000/svg">
<path fill-rule="evenodd" clip-rule="evenodd" d="M31.4308 26.298C31.2215 26.1607 31.0122 26.0235 30.8039 25.8851C29.9255 26.4494 29.0496 27.0164 28.1738 27.5833C26.5261 28.6499 24.8785 29.7164 23.2134 30.7655C22.6127 28.945 21.3178 27.4831 19.4915 26.9141C18.2029 26.5127 16.6049 26.5651 14.9524 26.6192C13.956 26.6519 12.9398 26.6852 11.9597 26.6201V38.88C12.963 38.8333 13.9598 38.8617 14.9258 38.8891C15.9662 38.9187 16.9707 38.9473 17.9089 38.88C20.81 38.6713 22.5633 36.9055 23.3015 34.5581C24.5445 35.3714 25.7666 36.2058 26.9886 37.0402C28.2719 37.9164 29.5551 38.7926 30.8626 39.6443C31.7028 39.1066 32.5484 38.5558 33.3951 38.0044C35.0186 36.947 36.6462 35.8869 38.2478 34.9108V38.88H46.5418V34.9696C46.0511 34.9622 45.5491 34.9662 45.0471 34.9701C44.2298 34.9765 43.4124 34.9829 42.6438 34.9405V26.6201H38.2478V30.795C37.7038 31.143 37.1613 31.4923 36.6188 31.8416C35.1681 32.7757 33.7174 33.7097 32.2399 34.6169C32.1242 34.5413 32.0036 34.4705 31.883 34.3998C31.6708 34.2753 31.4585 34.1508 31.273 33.9995C32.1041 33.4606 32.9266 32.913 33.749 32.3654C34.8701 31.619 35.9912 30.8725 37.1344 30.1482C36.3157 29.5288 35.4424 28.9643 34.5553 28.4135C32.7302 29.5851 30.8982 30.7494 29.0661 31.9137C28.9127 32.0112 28.7593 32.1086 28.606 32.2061C28.4565 32.0914 28.2967 31.9869 28.1369 31.8825C27.9772 31.7782 27.8176 31.6739 27.6682 31.5593C28.4868 31.036 29.3006 30.5079 30.1145 29.9798C31.2582 29.2377 32.4018 28.4955 33.5588 27.7667C32.8788 27.2477 32.1548 26.7728 31.4308 26.298ZM16.1504 34.9697V30.5598C16.1479 30.5181 16.1458 30.4765 16.1796 30.4715C17.4488 30.39 18.3634 30.5215 18.9052 31.1477C19.7169 32.0863 19.5317 33.8477 18.6121 34.5583C18.0547 34.989 17.3522 34.9817 16.4515 34.9723C16.3535 34.9713 16.2532 34.9702 16.1504 34.9697Z" fill="#0083CA"/>
<path d="M52.0804 26.6201H47.6845C47.6504 26.625 47.6526 26.6663 47.6549 26.7078L47.6549 38.8801H55.9489V34.9697H52.0804V26.6201Z" fill="#0083CA"/>
<path fill-rule="evenodd" clip-rule="evenodd" d="M34.4083 4.1875H32.5913C23.8117 4.67239 17.4449 8.06322 12.7802 12.7432C8.13681 17.4014 4.66446 23.6892 4.22257 32.5592C4.2275 32.5935 4.21625 32.6116 4.19325 32.6181V34.3821C4.65473 43.2861 8.10825 49.5091 12.78 54.2274C17.4518 58.946 23.7545 62.3114 32.5913 62.8124H34.379C43.3918 62.3675 49.3626 58.8714 54.2196 54.257C58.8433 49.399 62.3577 43.4284 62.8064 34.3821V32.6181C62.3449 23.714 58.8916 17.4909 54.2196 12.7726C49.5478 8.05422 43.2463 4.68748 34.4083 4.1875ZM22.1289 10.1558C23.5443 9.45363 25.1059 8.85959 26.8472 8.39181C28.6017 7.92048 30.5243 7.66592 32.5624 7.56857C36.7082 7.37055 40.579 8.29356 43.5525 9.53843C46.6171 10.8215 49.2177 12.5966 51.3773 14.6835C55.7421 18.9011 59.0494 24.4318 59.4366 32.5885C59.6411 36.8944 58.6949 40.4489 57.4437 43.5257C54.9696 49.6082 50.5058 54.0165 44.8417 56.8736C41.9516 58.3313 38.4633 59.2391 34.4378 59.4314C30.241 59.632 26.5141 58.7372 23.5064 57.4617C17.4242 54.8822 13.0292 50.6381 10.1425 44.8781C8.68068 41.9608 7.75532 38.5386 7.56363 34.4702C7.25959 28.017 9.359 23.0957 11.7837 19.27C14.2679 15.3507 17.8207 12.293 22.1289 10.1558Z" fill="#0083CA"/>
</svg>
