<svg width="63" height="63" viewBox="0 0 63 63" fill="none" xmlns="http://www.w3.org/2000/svg">
<path d="M59.0611 37.406C59.0611 23.6248 52.1705 13.781 43.3111 13.781C36.4205 13.781 31.4986 21.656 31.4986 21.656C27.5611 27.5623 27.5611 38.3904 33.4674 26.5779C33.4674 26.5779 38.3893 18.7029 43.3111 18.7029C50.2018 18.7029 53.8327 30.5154 53.8327 37.406C53.8327 39.3748 53.1549 43.3123 49.2174 43.3123V49.2185C53.1549 49.2185 59.0611 46.2654 59.0611 37.406Z" fill="url(#paint0_radial_0_14019)"/>
<path d="M19.687 13.781V19.6873C13.387 20.4748 9.84322 30.5154 9.84322 37.406C9.84322 39.3748 10.8276 43.3123 13.7807 43.3123C18.7026 43.3123 24.3622 32.4447 29.5307 24.4961C32.2745 20.2765 35.0055 23.8996 32.923 27.5623C27.9887 36.2408 23.0477 49.2185 13.7807 49.2185C9.84322 49.2185 3.93697 46.2654 3.93697 37.406C3.93697 19.6873 14.7651 13.781 19.687 13.781Z" fill="url(#paint1_radial_0_14019)"/>
<path d="M49.2185 43.3123C42.3278 43.3123 34.4528 13.781 19.6872 13.781V19.6873C31.4997 19.6873 36.4215 49.2185 49.2185 49.2185V43.3123Z" fill="#0768E1"/>
<defs>
<radialGradient id="paint0_radial_0_14019" cx="0" cy="0" r="1" gradientUnits="userSpaceOnUse" gradientTransform="translate(49.2174 47.2498) rotate(-101.31) scale(35.1354 27.3276)">
<stop stop-color="#0768E1"/>
<stop offset="1" stop-color="#0082FB"/>
</radialGradient>
<radialGradient id="paint1_radial_0_14019" cx="0" cy="0" r="1" gradientUnits="userSpaceOnUse" gradientTransform="translate(19.687 17.7185) rotate(154.537) scale(22.896 12.0088)">
<stop stop-color="#0768E1"/>
<stop offset="1" stop-color="#0082FB"/>
</radialGradient>
</defs>
</svg>
