<svg width="65" height="65" viewBox="0 0 65 65" fill="none" xmlns="http://www.w3.org/2000/svg">
<path d="M32.5 4.0625C16.8149 4.0625 4.0625 16.8149 4.0625 32.5C4.0625 48.1851 16.8149 60.9375 32.5 60.9375C48.1851 60.9375 60.9375 48.1851 60.9375 32.5C60.9375 16.8149 48.1851 4.0625 32.5 4.0625Z" fill="#81B441"/>
<path d="M42.733 16.1842C28.9453 17.0963 24.7822 29.9593 24.4297 36.5403C24.4297 37.623 20.9528 35.4314 23.0208 25.983C23.1981 25.173 23.0208 24.2057 23.0208 24.2057C15.8407 30.5214 16.4581 42.4623 25.2849 47.317C32.1273 51.0803 41.0224 48.6855 44.9568 41.6721C49.5754 33.6323 45.47 17.7237 42.733 16.1842Z" fill="white"/>
</svg>
