<svg width="61" height="61" viewBox="0 0 61 61" fill="none" xmlns="http://www.w3.org/2000/svg">
<path d="M4.90022 38.1764C8.19944 49.1744 18.4052 57.1875 30.4839 57.1875C45.2321 57.1875 57.1884 45.2388 57.1884 30.5C57.1884 15.7609 45.2321 3.8125 30.4839 3.8125C16.3314 3.8125 4.75123 14.8149 3.83662 28.7269C3.83662 32.724 3.83662 34.3919 4.90022 38.1764Z" fill="url(#paint0_linear_0_14023)"/>
<path d="M29.1123 23.9469L22.5776 33.4334C21.0371 33.3634 19.4864 33.7992 18.1992 34.6452L3.84999 28.7419C3.84999 28.7419 3.51796 34.2008 4.90167 38.2692L15.0457 42.4522C15.5551 44.7269 17.1165 46.7222 19.4202 47.682C23.1894 49.2558 27.5352 47.4621 29.1031 43.6938C29.5111 42.7087 29.7014 41.6756 29.6739 40.6447L39.2531 33.9717C44.8485 33.9717 49.3962 29.4131 49.3962 23.8149C49.3962 18.2163 44.8485 13.6617 39.2531 13.6617C33.8487 13.6617 28.8094 18.3774 29.1123 23.9469ZM27.5421 43.0386C26.3286 45.9502 22.9805 47.3315 20.0703 46.1197C18.7277 45.5607 17.7141 44.5368 17.1294 43.3158L20.4313 44.6834C22.5776 45.5768 25.0399 44.5597 25.932 42.4155C26.8269 40.2691 25.8117 37.8042 23.6666 36.9108L20.2532 35.4974C21.5703 34.998 23.0676 34.9797 24.4666 35.5615C25.877 36.148 26.9713 37.2521 27.5512 38.6632C28.1312 40.0743 28.1289 41.6321 27.5421 43.0386ZM39.2531 30.5814C35.5282 30.5814 32.4956 27.5461 32.4956 23.8149C32.4956 20.0867 35.5282 17.0505 39.2531 17.0505C42.9803 17.0505 46.0129 20.0867 46.0129 23.8149C46.0129 27.5461 42.9803 30.5814 39.2531 30.5814ZM34.1896 23.8046C34.1896 20.9977 36.4635 18.7211 39.2646 18.7211C42.068 18.7211 44.3419 20.9977 44.3419 23.8046C44.3419 26.6117 42.068 28.8862 39.2646 28.8862C36.4635 28.8862 34.1896 26.6117 34.1896 23.8046Z" fill="white"/>
<defs>
<linearGradient id="paint0_linear_0_14023" x1="30.5125" y1="3.8125" x2="30.5125" y2="57.1875" gradientUnits="userSpaceOnUse">
<stop stop-color="#111D2E"/>
<stop offset="0.21248" stop-color="#051839"/>
<stop offset="0.40695" stop-color="#0A1B48"/>
<stop offset="0.5811" stop-color="#132E62"/>
<stop offset="0.7376" stop-color="#144B7E"/>
<stop offset="0.87279" stop-color="#136497"/>
<stop offset="1" stop-color="#1387B8"/>
</linearGradient>
</defs>
</svg>
