<svg width="65" height="65" viewBox="0 0 65 65" fill="none" xmlns="http://www.w3.org/2000/svg">
<path d="M60.9403 33.1316C60.9403 30.7934 60.7467 29.0872 60.3278 27.3177H33.0832V37.8711H49.0752C48.7529 40.4938 47.0118 44.4434 43.1427 47.0974L43.0884 47.4508L51.7027 53.9906L52.2995 54.049C57.7805 49.0882 60.9403 41.7892 60.9403 33.1316Z" fill="#4285F4"/>
<path d="M33.0814 60.9374C40.9161 60.9374 47.4934 58.4095 52.2976 54.0492L43.1408 47.0976C40.6905 48.7722 37.4018 49.9413 33.0814 49.9413C25.4079 49.9413 18.8951 44.9807 16.5734 38.124L16.2331 38.1523L7.27598 44.9458L7.15884 45.2649C11.9306 54.5546 21.7322 60.9374 33.0814 60.9374Z" fill="#34A853"/>
<path d="M16.5751 38.1242C15.9625 36.3548 15.608 34.4588 15.608 32.4999C15.608 30.5408 15.9625 28.645 16.5429 26.8756L16.5267 26.4987L7.45724 19.5962L7.16051 19.7345C5.19383 23.5894 4.06535 27.9183 4.06535 32.4999C4.06535 37.0815 5.19383 41.4102 7.16051 45.2651L16.5751 38.1242Z" fill="#FBBC05"/>
<path d="M33.0816 15.0583C38.5304 15.0583 42.2059 17.3648 44.3018 19.2924L52.4912 11.4562C47.4616 6.87466 40.9163 4.0625 33.0816 4.0625C21.7323 4.0625 11.9306 10.4451 7.15884 19.7346L16.5413 26.8757C18.8951 20.0191 25.408 15.0583 33.0816 15.0583Z" fill="#EB4335"/>
</svg>
