<svg width="66" height="65" viewBox="0 0 66 65" fill="none" xmlns="http://www.w3.org/2000/svg">
<circle cx="33.2656" cy="32.5" r="28.4375" fill="url(#paint0_linear_0_14040)"/>
<path d="M38.2357 17.5785C38.8503 16.5057 38.4829 15.1354 37.415 14.5179C36.3472 13.9004 34.9832 14.2696 34.3686 15.3424L33.2966 17.2137L32.2246 15.3424C31.61 14.2696 30.2461 13.9004 29.1782 14.5179C28.1103 15.1354 27.7429 16.5057 28.3575 17.5785L30.7225 21.7068L23.2419 34.7646H17.2153C15.9832 34.7646 14.9844 35.7681 14.9844 37.006C14.9844 38.2438 15.9832 39.2473 17.2153 39.2473H38.2065C38.3905 38.7614 38.5843 37.9278 38.3782 37.1616C38.0683 36.0098 36.9219 34.7646 35.0008 34.7646H28.39L38.2357 17.5785Z" fill="white"/>
<path d="M24.4021 41.7258C24.0214 41.3011 23.1686 40.6224 22.4208 40.3991C21.2806 40.0585 20.4162 40.2722 19.9801 40.4583L18.3183 43.359C17.7037 44.4318 18.0711 45.8021 19.139 46.4196C20.2069 47.0371 21.5708 46.6679 22.1854 45.5951L24.4021 41.7258Z" fill="white"/>
<path d="M45.9194 39.2473H49.3159C50.5481 39.2473 51.5469 38.2438 51.5469 37.006C51.5469 35.7681 50.5481 34.7646 49.3159 34.7646H43.3513L36.6325 23.0366C36.1334 23.5131 35.1764 24.7304 35.0318 26.1106C34.8459 27.885 35.1247 29.3792 35.9613 30.8423C38.774 35.7613 41.591 40.6783 44.4078 45.5951C45.0224 46.6679 46.3864 47.0371 47.4542 46.4196C48.5221 45.8021 48.8895 44.4318 48.2749 43.359L45.9194 39.2473Z" fill="white"/>
<defs>
<linearGradient id="paint0_linear_0_14040" x1="33.2656" y1="4.0625" x2="33.2656" y2="60.9375" gradientUnits="userSpaceOnUse">
<stop stop-color="#2AC9FA"/>
<stop offset="1" stop-color="#1F65EB"/>
</linearGradient>
</defs>
</svg>
