<svg width="61" height="61" viewBox="0 0 61 61" fill="none" xmlns="http://www.w3.org/2000/svg">
<path d="M5.47395 12.139C3.8118 15.4012 3.8118 19.6716 3.8118 28.2124V32.7874C3.8118 41.3282 3.8118 45.5986 5.47395 48.8607C6.93602 51.7302 9.26897 54.0632 12.1384 55.5252C15.4006 57.1874 19.671 57.1874 28.2118 57.1874H32.7868C41.3276 57.1874 45.598 57.1874 48.8602 55.5252C51.7296 54.0632 54.0626 51.7302 55.5247 48.8607C57.1868 45.5986 57.1868 41.3282 57.1868 32.7874V28.2124C57.1868 19.6716 57.1868 15.4012 55.5247 12.139C54.0626 9.26955 51.7296 6.9366 48.8602 5.47453C45.598 3.81238 41.3276 3.81238 32.7868 3.81238H28.2118C19.671 3.81238 15.4006 3.81238 12.1384 5.47453C9.26897 6.9366 6.93602 9.26955 5.47395 12.139Z" fill="url(#paint0_linear_0_14010)"/>
<path d="M4.31738 15.7824C3.8118 18.6557 3.8118 22.4681 3.8118 28.212V32.787C3.8118 41.3278 3.8118 45.5982 5.47395 48.8603C6.93602 51.7298 9.26897 54.0628 12.1384 55.5248C15.4006 57.187 19.671 57.187 28.2118 57.187H32.7868C41.3276 57.187 45.598 57.187 48.8602 55.5248C51.7296 54.0628 54.0626 51.7298 55.5247 48.8603C57.1868 45.5982 57.1868 41.3278 57.1868 32.787V28.212C57.1868 19.6712 57.1868 15.4008 55.5247 12.1386C54.1134 9.36898 51.8909 7.09918 49.1577 5.62988L4.31738 15.7824Z" fill="url(#paint1_linear_0_14010)"/>
<path d="M56.6359 45.4723C56.3908 46.7604 56.0369 47.8585 55.5259 48.8613C54.0639 51.7308 51.7309 54.0638 48.8615 55.5258C45.6969 57.1382 41.5836 57.1865 33.5434 57.1879H30.6123V51.1581L56.6359 45.4723Z" fill="url(#paint2_linear_0_14010)"/>
<path d="M32.7881 3.81238H28.2131C26.5515 3.81238 25.0515 3.81238 23.6891 3.82462V11.3812L49.154 5.62761C49.0571 5.57557 48.9596 5.52454 48.8615 5.47453C47.0505 4.55178 44.9287 4.1413 41.9381 3.9587C39.5417 3.81238 36.5874 3.81238 32.7881 3.81238Z" fill="url(#paint3_linear_0_14010)"/>
<path d="M57.1889 33.1182C57.1887 38.8476 57.1785 42.6242 56.6367 45.4719L47.5858 47.4494V33.9617L57.1889 31.7284V33.1182Z" fill="url(#paint4_linear_0_14010)"/>
<path fill-rule="evenodd" clip-rule="evenodd" d="M28.4809 25.5009C28.4809 24.2758 29.4826 23.8046 31.1415 23.8046C33.5204 23.8046 36.5253 24.5271 38.9041 25.8151V18.433C36.3062 17.3964 33.7395 16.988 31.1415 16.988C24.7874 16.988 20.5618 20.3178 20.5618 25.8779C20.5618 34.5479 32.4562 33.1657 32.4562 36.9038C32.4562 38.3488 31.2041 38.82 29.4513 38.82C26.8533 38.82 23.5354 37.752 20.9061 36.307V43.7833C23.8171 45.0398 26.7594 45.5738 29.4513 45.5738C35.9619 45.5738 40.4379 42.3383 40.4379 36.7154C40.4066 27.3543 28.4809 29.0192 28.4809 25.5009Z" fill="white"/>
<defs>
<linearGradient id="paint0_linear_0_14010" x1="3.8118" y1="3.81238" x2="21.3429" y2="16.207" gradientUnits="userSpaceOnUse">
<stop stop-color="#392993"/>
<stop offset="1" stop-color="#4B47B9"/>
</linearGradient>
<linearGradient id="paint1_linear_0_14010" x1="5.82174" y1="16.3446" x2="44.5229" y2="48.2676" gradientUnits="userSpaceOnUse">
<stop stop-color="#594BB9"/>
<stop offset="1" stop-color="#60A8F2"/>
</linearGradient>
<linearGradient id="paint2_linear_0_14010" x1="30.6123" y1="51.3816" x2="57.1881" y2="57.1881" gradientUnits="userSpaceOnUse">
<stop stop-color="#61A2EF"/>
<stop offset="1" stop-color="#58E6FD"/>
</linearGradient>
<linearGradient id="paint3_linear_0_14010" x1="23.6891" y1="7.60893" x2="57.1881" y2="3.81238" gradientUnits="userSpaceOnUse">
<stop stop-color="#534EBE"/>
<stop offset="1" stop-color="#6875E2"/>
</linearGradient>
<linearGradient id="paint4_linear_0_14010" x1="47.5858" y1="34.0733" x2="57.1889" y2="45.5746" gradientUnits="userSpaceOnUse">
<stop stop-color="#71A5F3"/>
<stop offset="1" stop-color="#6CC3FA"/>
</linearGradient>
</defs>
</svg>
