<svg width="68" height="68" viewBox="0 0 68 68" fill="none" xmlns="http://www.w3.org/2000/svg">
<g clip-path="url(#clip0_0_14014)">
<path d="M44.9788 28.7013L48.7612 27.3435L40.0471 33.9873L36.6937 35.0181L44.9788 28.7013Z" fill="#1A1A1A"/>
<path d="M68.0021 35.6479L65.8758 36.7519L36.6937 35.0178L40.0471 33.9869L68.0021 35.6479Z" fill="#8C8C8C"/>
<path d="M65.8377 39.0422L18.9216 40.631L22.7073 39.2739L65.1845 37.8354L65.8377 39.0422Z" fill="#1A1A1A"/>
<path d="M18.9216 40.6319L22.7073 39.2748L31.0031 32.9592L27.6484 33.9881L18.9216 40.6319Z" fill="#8C8C8C"/>
<path d="M31.0027 32.9589L27.6481 33.9877L0.00123596 32.3267L2.12666 31.224L31.0027 32.9589Z" fill="#1A1A1A"/>
<path d="M2.75732 30.1487L2.09325 31.2776L30.98 32.9709L22.646 39.3127L65.2124 37.8186L65.8433 36.7229L36.7241 34.9963L44.9585 28.6877L2.75732 30.1487Z" fill="#EEEEEE"/>
<path d="M2.16539 28.9323L2.81837 30.139L2.12666 31.2238L0.00123596 32.3266L2.16539 28.9323Z" fill="#8C8C8C"/>
<path d="M2.16531 28.932L2.81829 30.1388L44.9778 28.7013L48.7602 27.3435" fill="url(#paint0_linear_0_14014)"/>
<path d="M65.8378 39.043L65.1846 37.8362L65.8754 36.7529L68.0017 35.6489" fill="#1A1A1A"/>
<path d="M59.1103 38.7633C58.4376 42.5909 56.9341 46.3207 54.5563 49.658C46.2093 61.3746 30.203 63.8822 18.876 55.2482C11.5645 49.6747 7.96258 40.8005 8.57225 32.058L7.33294 32.766C6.95713 41.6522 10.7292 50.5637 18.1715 56.2367C30.0449 65.2871 46.7629 62.6679 55.5122 50.3865C57.9521 46.9618 59.5145 43.1476 60.2418 39.2314L59.1103 38.7633V38.7633Z" fill="url(#paint1_linear_0_14014)"/>
<path d="M60.6965 35.2145C61.0663 26.3348 57.2937 17.4317 49.8564 11.7627C37.9838 2.71209 21.2658 5.33119 12.5163 17.6127C10.0821 21.0294 8.52117 24.8336 7.79168 28.7404L8.88759 29.4131C9.5449 25.5235 11.058 21.73 13.4724 18.3414C21.8191 6.62482 37.8255 4.11696 49.1522 12.7512C56.5092 18.3593 60.1106 27.3094 59.4442 36.1044L60.6965 35.2145V35.2145Z" fill="url(#paint2_linear_0_14014)"/>
<path d="M57.4652 38.9073C56.0269 46.2199 51.4289 52.7843 44.4501 56.2814C32.5736 62.2336 18.2296 57.081 12.4752 44.7958C10.6068 40.8069 9.87031 36.5488 10.1342 32.4133L8.56965 32.0863C8.24725 36.565 9.0251 41.1855 11.0507 45.5098C17.1856 58.6078 32.4783 64.1014 45.1406 57.7552C52.7307 53.9517 57.6793 46.7447 59.1051 38.76L57.4652 38.9073V38.9073Z" fill="url(#paint3_linear_0_14014)"/>
<path d="M59.4448 36.1036C59.8028 31.5665 59.0317 26.8763 56.9778 22.4914C50.8431 9.39342 35.5501 3.90012 22.8876 10.246C15.2436 14.0766 10.2789 21.3596 8.8938 29.4122L10.4788 29.5446C11.8141 22.0524 16.4564 15.2889 23.5778 11.7199C35.4551 5.76763 49.7989 10.9202 55.553 23.2054C57.4693 27.2964 58.1947 31.6705 57.8721 35.9053L59.4448 36.1036V36.1036Z" fill="url(#paint4_linear_0_14014)"/>
<path d="M57.8766 35.9084C57.9231 35.2788 57.9469 34.6424 57.9469 34.0003C57.9469 20.3491 47.2101 9.24304 34.0124 9.24304C22.2822 9.24304 12.4957 18.0172 10.4649 29.554L11.8697 28.6019C14.2348 18.2213 23.265 10.4712 34.0124 10.4712C46.5552 10.4712 56.7595 21.0265 56.7595 34.0003C56.7594 34.4637 56.7464 34.927 56.7203 35.3895L57.8766 35.9084V35.9084Z" fill="url(#paint5_linear_0_14014)"/>
<path d="M56.1517 39.4211C53.7787 49.7905 44.7534 57.5291 34.014 57.5291C21.4715 57.5291 11.2671 46.9738 11.2671 33.9999C11.2671 33.6244 11.2758 33.2511 11.2926 32.8798L10.1286 32.4099C10.0961 32.9393 10.0798 33.4695 10.0798 33.9999C10.0798 47.6514 20.8166 58.7572 34.014 58.7572C45.5905 58.7572 55.2735 50.212 57.4778 38.8997L56.1517 39.4211Z" fill="url(#paint6_linear_0_14014)"/>
</g>
<defs>
<linearGradient id="paint0_linear_0_14014" x1="2.16531" y1="28.7412" x2="48.7602" y2="28.7412" gradientUnits="userSpaceOnUse">
<stop stop-color="#8C8C8C"/>
<stop offset="1" stop-color="#4D4D4D"/>
</linearGradient>
<linearGradient id="paint1_linear_0_14014" x1="7.30744" y1="46.8413" x2="60.2421" y2="46.8413" gradientUnits="userSpaceOnUse">
<stop offset="0.006" stop-color="#1A1A1A"/>
<stop offset="0.01" stop-color="#282828"/>
<stop offset="0.029" stop-color="#5D5D5D"/>
<stop offset="0.046" stop-color="#888888"/>
<stop offset="0.062" stop-color="#A6A6A6"/>
<stop offset="0.075" stop-color="#B9B9B9"/>
<stop offset="0.084" stop-color="#BFBFBF"/>
<stop offset="0.143" stop-color="#999999"/>
<stop offset="0.208" stop-color="#777777"/>
<stop offset="0.28" stop-color="#5A5A5A"/>
<stop offset="0.359" stop-color="#424242"/>
<stop offset="0.449" stop-color="#303030"/>
<stop offset="0.556" stop-color="#232323"/>
<stop offset="0.696" stop-color="#1C1C1C"/>
<stop offset="1" stop-color="#1A1A1A"/>
</linearGradient>
<linearGradient id="paint2_linear_0_14014" x1="7.79144" y1="21.2397" x2="60.7213" y2="21.2397" gradientUnits="userSpaceOnUse">
<stop stop-color="#E0E0E0"/>
<stop offset="0.116" stop-color="#DBDBDB"/>
<stop offset="0.26" stop-color="#CCCCCC"/>
<stop offset="0.42" stop-color="#B2B2B2"/>
<stop offset="0.59" stop-color="#8F8F8F"/>
<stop offset="0.767" stop-color="#626262"/>
<stop offset="0.843" stop-color="#4D4D4D"/>
<stop offset="1" stop-color="#1A1A1A"/>
</linearGradient>
<linearGradient id="paint3_linear_0_14014" x1="8.49915" y1="46.2403" x2="59.1048" y2="46.2403" gradientUnits="userSpaceOnUse">
<stop stop-color="#ECECEC"/>
<stop offset="0.001" stop-color="#DBDBDB"/>
<stop offset="0.002" stop-color="#D0D0D0"/>
<stop offset="0.003" stop-color="#C9C9C9"/>
<stop offset="0.006" stop-color="#C7C7C7"/>
<stop offset="0.179" stop-color="#C9C9C9"/>
<stop offset="0.28" stop-color="#D2D2D2"/>
<stop offset="0.362" stop-color="#E0E0E0"/>
<stop offset="0.434" stop-color="#F4F4F4"/>
<stop offset="0.466" stop-color="white"/>
<stop offset="0.642" stop-color="#FDFDFD"/>
<stop offset="0.734" stop-color="#F5F5F5"/>
<stop offset="0.807" stop-color="#E7E7E7"/>
<stop offset="0.869" stop-color="#D4D4D4"/>
<stop offset="0.925" stop-color="#BCBCBC"/>
<stop offset="0.976" stop-color="#9D9D9D"/>
<stop offset="1" stop-color="#8C8C8C"/>
</linearGradient>
<linearGradient id="paint4_linear_0_14014" x1="15.1019" y1="13.8639" x2="60.0096" y2="34.8978" gradientUnits="userSpaceOnUse">
<stop offset="0.006" stop-color="#C7C7C7"/>
<stop offset="0.025" stop-color="#D2D2D2"/>
<stop offset="0.055" stop-color="#DDDDDD"/>
<stop offset="0.09" stop-color="#E0E0E0"/>
<stop offset="0.098" stop-color="#E9E9E9"/>
<stop offset="0.117" stop-color="#F6F6F6"/>
<stop offset="0.142" stop-color="#FDFDFD"/>
<stop offset="0.197" stop-color="white"/>
<stop offset="0.714" stop-color="#8C8C8C"/>
<stop offset="1" stop-color="#8C8C8C"/>
</linearGradient>
<linearGradient id="paint5_linear_0_14014" x1="57.9469" y1="22.5757" x2="10.4649" y2="22.5757" gradientUnits="userSpaceOnUse">
<stop stop-color="#E0E0E0"/>
<stop offset="0.001" stop-color="#E0E0E0"/>
<stop offset="0.006" stop-color="#E0E0E0"/>
<stop offset="0.183" stop-color="#C2C2C2"/>
<stop offset="0.57" stop-color="#757575"/>
<stop offset="1" stop-color="#1A1A1A"/>
</linearGradient>
<linearGradient id="paint6_linear_0_14014" x1="57.4778" y1="45.5833" x2="10.0798" y2="45.5833" gradientUnits="userSpaceOnUse">
<stop stop-color="#1A1A1A"/>
<stop offset="0.017" stop-color="#303030"/>
<stop offset="0.061" stop-color="#656565"/>
<stop offset="0.104" stop-color="#929292"/>
<stop offset="0.146" stop-color="#B4B4B4"/>
<stop offset="0.185" stop-color="#CCCCCC"/>
<stop offset="0.221" stop-color="#DBDBDB"/>
<stop offset="0.25" stop-color="#E0E0E0"/>
<stop offset="0.36" stop-color="#DDDDDD"/>
<stop offset="0.467" stop-color="#D1D1D1"/>
<stop offset="0.572" stop-color="#BDBDBD"/>
<stop offset="0.677" stop-color="#A2A2A2"/>
<stop offset="0.781" stop-color="#7E7E7E"/>
<stop offset="0.885" stop-color="#535353"/>
<stop offset="0.987" stop-color="#212121"/>
<stop offset="1" stop-color="#1A1A1A"/>
</linearGradient>
<clipPath id="clip0_0_14014">
<rect width="68" height="68" fill="white"/>
</clipPath>
</defs>
</svg>
