<svg width="61" height="61" viewBox="0 0 61 61" fill="none" xmlns="http://www.w3.org/2000/svg">
<path d="M30.5004 3.8125C15.7805 3.8125 3.81287 15.7802 3.81287 30.5C3.81287 45.2198 15.7805 57.1875 30.5004 57.1875C45.2202 57.1875 57.1879 45.2198 57.1879 30.5C57.1879 15.7802 45.2202 3.8125 30.5004 3.8125Z" fill="#333333"/>
<path fill-rule="evenodd" clip-rule="evenodd" d="M39.669 34.3836C39.5907 34.2713 39.5117 34.1612 39.4332 34.0517C38.7949 33.1619 38.1864 32.3138 38.1864 30.6137V24.276C38.1864 24.0557 38.1877 23.8368 38.1889 23.6197C38.2028 21.1897 38.2155 18.9724 36.463 17.2761C34.9602 15.7775 32.4638 15.2488 30.5546 15.2488C26.8206 15.2488 22.6552 16.693 21.7816 21.4786C21.6892 21.9869 22.0452 22.253 22.368 22.3278L26.1701 22.7545C26.5262 22.7358 26.7833 22.3728 26.8522 22.0073C27.1782 20.3582 28.51 19.566 30.0063 19.566C30.8133 19.566 31.7298 19.872 32.2075 20.6226C32.7 21.371 32.6922 22.3703 32.6852 23.2639C32.6843 23.368 32.6835 23.4707 32.6835 23.5713V24.1026C32.3307 24.1435 31.9611 24.1822 31.5803 24.2221C29.5068 24.4395 27.1042 24.6914 25.3048 25.5094C22.8482 26.6127 21.1231 28.8576 21.1231 32.1574C21.1231 36.3862 23.6901 38.5003 26.995 38.5003C29.7842 38.5003 31.3106 37.8177 33.4622 35.5431C33.5697 35.7046 33.6663 35.8535 33.7572 35.9938C34.2705 36.7851 34.6055 37.3016 35.7112 38.2555C36.0032 38.417 36.3893 38.4109 36.648 38.1679C37.4314 37.4454 38.854 36.1636 39.6561 35.4666C39.9764 35.1937 39.9196 34.7525 39.669 34.3836ZM31.9496 32.5561C31.3268 33.7036 30.3348 34.4057 29.2326 34.4057C27.7298 34.4057 26.8474 33.2157 26.8474 31.4553C26.8474 27.9897 29.8466 27.3607 32.6828 27.3607C32.6828 27.5681 32.6846 27.7766 32.6865 27.9856C32.7004 29.5544 32.7146 31.1543 31.9496 32.5561Z" fill="white"/>
<path d="M44.3583 41.2993C40.6026 44.2036 35.1561 45.7488 30.4655 45.7488C23.894 45.7488 17.9746 43.203 13.4956 38.9649C13.1442 38.6316 13.4578 38.1765 13.8799 38.4352C18.7131 41.3829 24.689 43.1572 30.861 43.1572C35.0251 43.1572 39.6016 42.2524 43.8126 40.3792C44.4478 40.0977 44.9802 40.819 44.3583 41.2993Z" fill="white"/>
<path d="M41.5355 39.2766C42.7447 39.1235 45.4411 38.7847 45.9212 39.4286C46.4018 40.072 45.3923 42.7177 44.9374 43.9101L44.934 43.9188C44.7971 44.2784 45.0915 44.4219 45.4016 44.1494C47.4171 42.3836 47.9379 38.682 47.5249 38.1456C47.1151 37.6165 43.5917 37.1585 41.4416 38.7412C41.1111 38.9867 41.1677 39.3213 41.5355 39.2766Z" fill="white"/>
</svg>
