<svg width="282" height="384" viewBox="0 0 282 384" fill="none" xmlns="http://www.w3.org/2000/svg">
<rect width="282" height="562" rx="8" fill="white"/>
<path d="M18.016 29L18.842 26.634H22.664L23.49 29H25.38L21.684 18.766H19.85L16.154 29H18.016ZM20.536 21.818C20.634 21.538 20.718 21.23 20.76 21.034C20.788 21.244 20.886 21.552 20.97 21.818L22.146 25.122H19.374L20.536 21.818ZM27.8393 29V25.276C27.8393 24.156 28.4833 23.428 29.5333 23.428C30.4153 23.428 30.9893 23.988 30.9893 25.15V29H32.6973V24.744C32.6973 22.952 31.8013 21.874 30.0653 21.874C29.1273 21.874 28.2873 22.28 27.8533 22.98L27.7133 22.084H26.1313V29H27.8393ZM36.1534 29.182C37.2314 29.182 38.1694 28.692 38.4634 27.978L38.5894 29H40.0874V24.8C40.0874 22.882 38.9394 21.874 37.0774 21.874C35.2014 21.874 33.9694 22.854 33.9694 24.352H35.4254C35.4254 23.624 35.9854 23.204 36.9934 23.204C37.8614 23.204 38.4214 23.582 38.4214 24.52V24.674L36.3494 24.828C34.7114 24.954 33.7874 25.752 33.7874 27.026C33.7874 28.328 34.6834 29.182 36.1534 29.182ZM36.7134 27.894C35.9434 27.894 35.5234 27.586 35.5234 26.956C35.5234 26.396 35.9294 26.046 36.9934 25.948L38.4354 25.836V26.2C38.4354 27.264 37.7634 27.894 36.7134 27.894ZM43.2074 29V18.584H41.5134V29H43.2074ZM44.117 32.206C44.495 32.304 44.915 32.36 45.391 32.36C46.525 32.36 47.253 31.828 47.771 30.54L51.159 22.084H49.395L47.519 27.124L45.741 22.084H43.935L46.721 29.294L46.525 29.812C46.231 30.624 45.811 30.778 45.139 30.778H44.117V32.206ZM51.1668 26.9C51.1668 28.258 52.2588 29.182 53.9808 29.182C55.6888 29.182 56.8788 28.314 56.8788 26.914C56.8788 25.85 56.2908 25.318 55.1288 25.052L53.8828 24.758C53.2948 24.618 52.9868 24.366 52.9868 23.974C52.9868 23.456 53.3788 23.148 54.0508 23.148C54.7088 23.148 55.1008 23.526 55.1148 24.114H56.7388C56.7248 22.77 55.6748 21.874 54.1208 21.874C52.5248 21.874 51.3768 22.686 51.3768 24.044C51.3768 25.15 51.9788 25.738 53.2248 26.018L54.4708 26.312C55.0868 26.452 55.2688 26.704 55.2688 27.054C55.2688 27.558 54.8348 27.88 54.0368 27.88C53.2528 27.88 52.8048 27.502 52.7908 26.9H51.1668ZM58.7533 20.698C59.3133 20.698 59.7753 20.236 59.7753 19.662C59.7753 19.088 59.3133 18.64 58.7533 18.64C58.1653 18.64 57.7033 19.088 57.7033 19.662C57.7033 20.236 58.1653 20.698 58.7533 20.698ZM57.8993 29H59.6073V22.084H57.8993V29ZM60.5599 26.9C60.5599 28.258 61.6519 29.182 63.3739 29.182C65.0819 29.182 66.2719 28.314 66.2719 26.914C66.2719 25.85 65.6839 25.318 64.5219 25.052L63.2759 24.758C62.6879 24.618 62.3799 24.366 62.3799 23.974C62.3799 23.456 62.7719 23.148 63.4439 23.148C64.1019 23.148 64.4939 23.526 64.5079 24.114H66.1319C66.1179 22.77 65.0679 21.874 63.5139 21.874C61.9179 21.874 60.7699 22.686 60.7699 24.044C60.7699 25.15 61.3719 25.738 62.6179 26.018L63.8639 26.312C64.4799 26.452 64.6619 26.704 64.6619 27.054C64.6619 27.558 64.2279 27.88 63.4299 27.88C62.6459 27.88 62.1979 27.502 62.1839 26.9H60.5599Z" fill="#383942"/>
<path d="M257.389 18.1201V29.88C257.389 30.3067 256.995 30.6267 256.582 30.5334C253.602 29.8667 251.389 27.1934 251.389 24.0001C251.389 20.8067 253.602 18.1334 256.582 17.4667C256.995 17.3734 257.389 17.6934 257.389 18.1201ZM258.742 18.1201V22.6601C258.742 23.0267 259.042 23.3267 259.409 23.3267H263.935C264.362 23.3267 264.682 22.9334 264.589 22.5134C264.022 20.0067 262.055 18.0334 259.555 17.4667C259.135 17.3734 258.742 17.6934 258.742 18.1201ZM258.742 25.3401V29.88C258.742 30.3067 259.135 30.6267 259.555 30.5334C262.062 29.9667 264.029 27.9867 264.595 25.4801C264.689 25.0667 264.362 24.6667 263.942 24.6667H259.415C259.042 24.6734 258.742 24.9734 258.742 25.3401Z" fill="#5167F6"/>
<path d="M16 40H266" stroke="#DEDFE3" stroke-width="0.5" stroke-linecap="round"/>
<rect x="16" y="64" width="32" height="32" rx="16" fill="#F4F4F6"/>
<path d="M32.5866 76.7061L29.9966 79.2961C29.6066 79.6861 29.6066 80.3161 29.9966 80.7061L32.5866 83.2961C33.2166 83.9261 34.2966 83.4761 34.2966 82.5861V77.4061C34.2966 76.5161 33.2166 76.0761 32.5866 76.7061Z" fill="#131316"/>
<path d="M107.956 81L109.372 76.944H115.924L117.34 81H120.58L114.244 63.456H111.1L104.764 81H107.956ZM112.276 68.688C112.444 68.208 112.588 67.68 112.66 67.344C112.708 67.704 112.876 68.232 113.02 68.688L115.036 74.352H110.284L112.276 68.688ZM128.983 69.144V75.36C128.983 77.616 128.095 78.696 126.247 78.696C124.615 78.696 123.727 77.784 123.727 75.528V69.144H120.799V76.56C120.799 79.464 122.407 81.312 125.143 81.312C126.727 81.312 128.263 80.544 128.983 79.416L129.199 81H131.911V69.144H128.983ZM133.303 74.808C133.303 78.24 135.511 80.76 138.871 80.76C140.575 80.76 142.039 80.064 142.783 78.96V80.928C142.783 82.896 141.487 84.168 139.471 84.168C137.671 84.168 136.495 83.256 136.303 81.72H133.375C133.735 84.888 136.063 86.832 139.471 86.832C143.311 86.832 145.687 84.36 145.687 80.4V69.144H142.975L142.807 70.776C142.111 69.504 140.719 68.76 138.943 68.76C135.559 68.76 133.303 71.352 133.303 74.808ZM136.255 74.736C136.255 72.792 137.503 71.328 139.447 71.328C141.487 71.328 142.711 72.72 142.711 74.736C142.711 76.8 141.463 78.216 139.447 78.216C137.527 78.216 136.255 76.728 136.255 74.736ZM155.797 69.144V75.36C155.797 77.616 154.909 78.696 153.061 78.696C151.429 78.696 150.541 77.784 150.541 75.528V69.144H147.613V76.56C147.613 79.464 149.221 81.312 151.957 81.312C153.541 81.312 155.077 80.544 155.797 79.416L156.013 81H158.725V69.144H155.797ZM159.643 77.4C159.643 79.728 161.515 81.312 164.467 81.312C167.395 81.312 169.435 79.824 169.435 77.424C169.435 75.6 168.427 74.688 166.435 74.232L164.299 73.728C163.291 73.488 162.763 73.056 162.763 72.384C162.763 71.496 163.435 70.968 164.587 70.968C165.715 70.968 166.387 71.616 166.411 72.624H169.195C169.171 70.32 167.371 68.784 164.707 68.784C161.971 68.784 160.003 70.176 160.003 72.504C160.003 74.4 161.035 75.408 163.171 75.888L165.307 76.392C166.363 76.632 166.675 77.064 166.675 77.664C166.675 78.528 165.931 79.08 164.563 79.08C163.219 79.08 162.451 78.432 162.427 77.4H159.643ZM174.736 81V71.592H177.04V69.144H174.736V65.448H171.808V69.144H169.528V71.592H171.808V81H174.736Z" fill="#131316"/>
<path d="M132.908 100.988V99.896H128.9L130.7 98.336C132.236 97.004 132.848 96.128 132.848 94.892C132.848 93.224 131.732 92.168 129.992 92.168C128.228 92.168 127.052 93.38 127.016 95.24H128.192C128.216 94.004 128.912 93.224 129.98 93.224C131.024 93.224 131.648 93.872 131.648 94.964C131.648 95.888 131.252 96.476 129.848 97.688L127.052 100.1V101L132.908 100.988ZM133.75 96.668C133.75 99.368 135.082 101.156 137.326 101.156C139.558 101.156 140.89 99.368 140.89 96.668C140.89 93.98 139.498 92.156 137.326 92.156C135.142 92.156 133.75 93.98 133.75 96.668ZM134.914 96.668C134.914 94.508 135.802 93.212 137.326 93.212C138.85 93.212 139.726 94.508 139.726 96.668C139.726 98.804 138.85 100.1 137.326 100.1C135.802 100.1 134.914 98.804 134.914 96.668ZM147.651 100.988V99.896H143.643L145.443 98.336C146.979 97.004 147.591 96.128 147.591 94.892C147.591 93.224 146.475 92.168 144.735 92.168C142.971 92.168 141.795 93.38 141.759 95.24H142.935C142.959 94.004 143.655 93.224 144.723 93.224C145.767 93.224 146.391 93.872 146.391 94.964C146.391 95.888 145.995 96.476 144.591 97.688L141.795 100.1V101L147.651 100.988ZM154.36 100.988V99.896H150.352L152.152 98.336C153.688 97.004 154.3 96.128 154.3 94.892C154.3 93.224 153.184 92.168 151.444 92.168C149.68 92.168 148.504 93.38 148.468 95.24H149.644C149.668 94.004 150.364 93.224 151.432 93.224C152.476 93.224 153.1 93.872 153.1 94.964C153.1 95.888 152.704 96.476 151.3 97.688L148.504 100.1V101L154.36 100.988Z" fill="#868898"/>
<rect x="234" y="64" width="32" height="32" rx="16" fill="#F4F4F6"/>
<path d="M249.414 83.2917L252.004 80.7017C252.394 80.3117 252.394 79.6817 252.004 79.2917L249.414 76.7017C248.784 76.0817 247.704 76.5217 247.704 77.4117V82.5817C247.704 83.4817 248.784 83.9217 249.414 83.2917Z" fill="#131316"/>
<g clip-path="url(#clip0_283_1506)">
<rect width="250" height="250" transform="translate(16 120)" fill="white"/>
<path d="M259.882 283.627C251.725 308.733 235.829 330.611 214.473 346.127C193.117 361.643 167.397 370 141 370V345C162.118 345 182.694 338.314 199.779 325.902C216.863 313.489 229.58 295.986 236.106 275.902L259.882 283.627Z" fill="#7EC897"/>
<path d="M141 120C160.726 120 180.173 124.669 197.749 133.624C215.325 142.58 230.532 155.568 242.127 171.527C253.722 187.486 261.375 205.962 264.461 225.446C267.547 244.929 265.978 264.866 259.882 283.627L236.106 275.902C240.982 260.893 242.238 244.943 239.769 229.357C237.3 213.77 231.178 198.989 221.902 186.221C212.626 173.454 200.46 163.064 186.399 155.899C172.338 148.735 156.781 145 141 145V120Z" fill="#F6D550"/>
<path d="M141 370C124.585 370 108.33 366.767 93.1646 360.485C77.9989 354.203 64.219 344.996 52.6116 333.388C41.0043 321.781 31.7969 308.001 25.515 292.835C19.2332 277.67 16 261.415 16 245C16 228.585 19.2332 212.33 25.5151 197.165C31.7969 181.999 41.0044 168.219 52.6117 156.612C64.219 145.004 77.9989 135.797 93.1646 129.515C108.33 123.233 124.585 120 141 120L141 145C127.868 145 114.864 147.587 102.732 152.612C90.5991 157.637 79.5752 165.003 70.2893 174.289C61.0035 183.575 53.6375 194.599 48.6121 206.732C43.5866 218.864 41 231.868 41 245C41 258.132 43.5866 271.136 48.612 283.268C53.6375 295.401 61.0035 306.425 70.2893 315.711C79.5752 324.997 90.5991 332.362 102.732 337.388C114.864 342.413 127.868 345 141 345V370Z" fill="#5167F6"/>
<path d="M89.6281 252.04H92.0921V249.32C96.3801 248.84 99.1321 246.152 99.1321 242.248C99.1321 238.856 97.2761 236.872 93.1801 235.976L92.0921 235.72V228.84C93.7561 229.192 94.7161 230.312 94.7801 232.04H98.7481C98.6201 228.2 96.1241 225.672 92.0921 225.256V222.536H89.6281V225.256C85.3721 225.704 82.5561 228.392 82.5561 232.136C82.5561 235.656 84.5721 237.896 88.6041 238.76L89.6281 238.984V245.8C87.5481 245.544 86.3641 244.392 86.3321 242.568H82.2361C82.3321 246.472 85.1801 249.064 89.6281 249.384V252.04ZM89.5001 235.144C87.4521 234.696 86.5561 233.704 86.5561 232.008C86.5561 230.28 87.7081 229.128 89.6281 228.808V235.176L89.5001 235.144ZM92.3161 239.56C94.2361 239.976 95.1641 240.968 95.1641 242.6C95.1641 244.232 94.0121 245.352 92.0921 245.736V239.496L92.3161 239.56ZM107.254 237.416C110.518 237.416 112.054 239.144 112.054 241.512C112.054 244.104 110.358 245.768 107.798 245.768C105.302 245.768 103.638 244.232 103.638 241.544H99.6056C99.6056 246.6 103.158 249.416 107.734 249.416C112.47 249.416 116.214 246.376 116.214 241.576C116.214 237.448 113.43 234.824 109.846 234.12L115.542 228.872V225.608H100.694V229.224H110.422L104.406 234.76V237.416H107.254ZM120.263 249.384C121.671 249.384 122.855 248.232 122.855 246.856C122.855 245.448 121.671 244.296 120.263 244.296C118.855 244.296 117.671 245.448 117.671 246.856C117.671 248.232 118.855 249.384 120.263 249.384ZM127.391 232.488C124.767 236.04 123.839 238.088 123.839 240.904C123.839 245.704 127.615 249.416 132.671 249.416C137.663 249.416 141.375 245.928 141.375 240.936C141.375 236.2 138.111 232.808 133.279 232.808C132.703 232.808 132.095 232.904 131.519 233.064L137.119 225.608H132.447L127.391 232.488ZM128.031 240.936C128.031 238.12 129.887 236.168 132.671 236.168C135.359 236.168 137.247 238.12 137.247 240.936C137.247 243.784 135.327 245.768 132.671 245.768C129.919 245.768 128.031 243.784 128.031 240.936ZM158.415 248.968V245.16H148.687L152.911 241.544C156.463 238.504 158.255 236.04 158.255 232.776C158.255 228.04 155.151 225.192 150.159 225.192C145.199 225.192 141.935 228.52 141.903 233.64H145.967C145.999 230.632 147.599 228.84 150.159 228.84C152.623 228.84 154.063 230.344 154.063 233C154.063 235.24 153.007 236.776 149.839 239.464L142.191 245.928V249L158.415 248.968ZM159.659 237.352C159.659 244.584 163.339 249.416 169.547 249.416C175.755 249.416 179.467 244.584 179.467 237.352C179.467 230.088 175.531 225.16 169.547 225.16C163.563 225.16 159.659 230.088 159.659 237.352ZM163.691 237.352C163.691 231.816 165.867 228.776 169.547 228.776C173.259 228.776 175.435 231.816 175.435 237.352C175.435 242.76 173.259 245.8 169.547 245.8C165.867 245.8 163.691 242.76 163.691 237.352ZM185.641 247.592C185.641 245.608 184.489 244.296 182.889 244.296C181.449 244.296 180.457 245.32 180.457 246.856C180.457 248.136 181.481 249.064 182.729 249.064C183.113 249.064 183.401 249 183.657 248.872C183.657 249.992 182.569 250.856 181.129 251.112V252.68C183.721 252.36 185.641 250.248 185.641 247.592ZM188.426 242.184H198.73V238.728H188.426V242.184Z" fill="#131316"/>
<rect x="133" y="265" width="16" height="16" rx="8" fill="#F1F9F3"/>
<path d="M141.5 276.396V270.811L143.94 273.251C144.135 273.446 144.455 273.446 144.65 273.251C144.845 273.056 144.845 272.741 144.65 272.546L141.355 269.251C141.16 269.056 140.845 269.056 140.65 269.251L137.35 272.541C137.155 272.736 137.155 273.051 137.35 273.246C137.545 273.441 137.86 273.441 138.055 273.246L140.5 270.811V276.396C140.5 276.671 140.725 276.896 141 276.896C141.275 276.896 141.5 276.671 141.5 276.396Z" fill="#7EC897"/>
<path d="M89.9793 286.608V294H91.4553V285.228H88.0593V286.608H89.9793ZM93.9566 287.808C92.9726 289.14 92.6246 289.908 92.6246 290.964C92.6246 292.764 94.0406 294.156 95.9366 294.156C97.8086 294.156 99.2006 292.848 99.2006 290.976C99.2006 289.2 97.9766 287.928 96.1646 287.928C95.9486 287.928 95.7206 287.964 95.5046 288.024L97.6046 285.228H95.8526L93.9566 287.808ZM94.1966 290.976C94.1966 289.92 94.8926 289.188 95.9366 289.188C96.9446 289.188 97.6526 289.92 97.6526 290.976C97.6526 292.044 96.9326 292.788 95.9366 292.788C94.9046 292.788 94.1966 292.044 94.1966 290.976ZM100.946 294.144C101.474 294.144 101.918 293.712 101.918 293.196C101.918 292.668 101.474 292.236 100.946 292.236C100.418 292.236 99.9745 292.668 99.9745 293.196C99.9745 293.712 100.418 294.144 100.946 294.144ZM103.603 286.608V294H105.079V285.228H101.683V286.608H103.603ZM106.238 291.516C106.238 293.112 107.546 294.144 109.574 294.144C111.614 294.144 112.922 293.1 112.922 291.516C112.922 290.46 112.322 289.608 111.398 289.284C112.178 288.96 112.61 288.3 112.61 287.448C112.61 286.02 111.398 285.072 109.598 285.072C107.786 285.072 106.55 286.032 106.55 287.424C106.55 288.276 106.97 288.936 107.738 289.284C106.826 289.632 106.238 290.472 106.238 291.516ZM107.942 287.556C107.942 286.836 108.578 286.38 109.574 286.38C110.558 286.38 111.182 286.836 111.182 287.568C111.182 288.3 110.558 288.756 109.574 288.756C108.578 288.756 107.942 288.288 107.942 287.556ZM107.738 291.408C107.738 290.556 108.446 290.028 109.574 290.028C110.702 290.028 111.41 290.556 111.41 291.408C111.41 292.26 110.702 292.788 109.586 292.788C108.446 292.788 107.738 292.26 107.738 291.408ZM118.174 287.364C118.174 286.02 117.214 285.06 115.882 285.06C114.55 285.06 113.59 286.02 113.59 287.364C113.59 288.72 114.55 289.668 115.882 289.668C117.214 289.668 118.174 288.72 118.174 287.364ZM122.986 285.24H121.522L114.862 294H116.326L122.986 285.24ZM117.01 287.364C117.01 288.06 116.554 288.54 115.882 288.54C115.222 288.54 114.766 288.06 114.766 287.364C114.766 286.668 115.21 286.188 115.882 286.188C116.554 286.188 117.01 286.668 117.01 287.364ZM124.27 291.852C124.27 290.508 123.322 289.548 121.99 289.548C120.646 289.548 119.698 290.508 119.698 291.852C119.698 293.196 120.646 294.156 121.99 294.156C123.322 294.156 124.27 293.196 124.27 291.852ZM123.106 291.852C123.106 292.548 122.65 293.028 121.99 293.028C121.318 293.028 120.862 292.548 120.862 291.852C120.862 291.156 121.318 290.676 121.99 290.676C122.65 290.676 123.106 291.156 123.106 291.852Z" fill="#7EC897"/>
<path d="M127.923 291.072C127.923 292.92 129.063 294.144 130.791 294.144C132.207 294.144 133.299 293.292 133.527 292.02H132.399C132.195 292.716 131.595 293.136 130.791 293.136C129.723 293.136 129.039 292.32 129.039 291.06C129.039 289.788 129.771 288.972 130.839 288.972C131.595 288.972 132.195 289.368 132.387 290.112H133.515C133.311 288.804 132.279 287.964 130.803 287.964C129.087 287.964 127.923 289.236 127.923 291.072ZM134.093 291.06C134.093 292.872 135.389 294.144 137.153 294.144C138.905 294.144 140.201 292.872 140.201 291.06C140.201 289.248 138.905 287.976 137.153 287.976C135.389 287.976 134.093 289.248 134.093 291.06ZM135.233 291.06C135.233 289.836 136.013 288.984 137.153 288.984C138.281 288.984 139.073 289.836 139.073 291.06C139.073 292.284 138.281 293.136 137.153 293.136C136.013 293.136 135.233 292.284 135.233 291.06ZM142.338 294V290.52C142.338 289.584 142.902 288.996 143.754 288.996C144.546 288.996 145.05 289.5 145.05 290.424V294H146.166V290.52C146.166 289.584 146.73 288.984 147.582 288.984C148.374 288.984 148.89 289.512 148.89 290.436V294H149.994V290.16C149.994 288.804 149.178 287.964 147.834 287.964C146.922 287.964 146.214 288.42 145.938 289.152C145.638 288.42 144.99 287.964 144.078 287.964C143.25 287.964 142.626 288.348 142.326 288.9L142.218 288.132H141.21V294H142.338ZM151.317 296.628H152.445V293.04C152.829 293.76 153.609 294.156 154.545 294.156C156.285 294.156 157.269 292.812 157.269 291.024C157.269 289.224 156.225 287.964 154.545 287.964C153.609 287.964 152.817 288.384 152.421 289.188L152.337 288.132H151.317V296.628ZM152.457 291.072C152.457 289.848 153.153 288.996 154.305 288.996C155.457 288.996 156.141 289.86 156.141 291.072C156.141 292.272 155.457 293.136 154.305 293.136C153.153 293.136 152.457 292.272 152.457 291.072ZM159.989 294.144C160.937 294.144 161.741 293.724 162.041 293.052L162.161 294H163.121V290.316C163.121 288.732 162.137 287.964 160.685 287.964C159.173 287.964 158.165 288.768 158.165 289.992H159.149C159.149 289.284 159.689 288.864 160.637 288.864C161.429 288.864 162.017 289.212 162.017 290.196V290.364L160.169 290.508C158.789 290.616 157.985 291.288 157.985 292.368C157.985 293.436 158.729 294.144 159.989 294.144ZM160.313 293.268C159.581 293.268 159.125 292.956 159.125 292.332C159.125 291.756 159.533 291.372 160.529 291.276L162.029 291.156V291.468C162.029 292.572 161.381 293.268 160.313 293.268ZM167.803 288.084C167.575 288.036 167.407 288.012 167.203 288.012C166.399 288.012 165.811 288.42 165.571 289.032L165.499 288.144H164.443V294H165.571V290.892C165.571 289.764 166.231 289.116 167.299 289.116H167.803V288.084ZM170.942 294.144C172.394 294.144 173.378 293.436 173.666 292.176H172.61C172.418 292.848 171.842 293.208 170.966 293.208C169.85 293.208 169.202 292.524 169.118 291.288L173.654 291.276V290.856C173.654 289.116 172.562 287.964 170.894 287.964C169.19 287.964 168.026 289.236 168.026 291.072C168.026 292.896 169.214 294.144 170.942 294.144ZM170.894 288.912C171.89 288.912 172.526 289.56 172.526 290.532H169.142C169.286 289.5 169.91 288.912 170.894 288.912ZM177.026 294.144C177.962 294.144 178.754 293.736 179.138 292.932L179.234 294H180.242V285.168H179.126V289.08C178.73 288.36 177.974 287.964 177.074 287.964C175.334 287.964 174.29 289.284 174.29 291.084C174.29 292.872 175.322 294.144 177.026 294.144ZM177.254 293.124C176.102 293.124 175.43 292.26 175.43 291.048C175.43 289.848 176.102 288.984 177.254 288.984C178.406 288.984 179.114 289.848 179.114 291.048C179.114 292.272 178.406 293.124 177.254 293.124ZM186.326 294V289.08H187.478V288.132H186.326V286.296H185.198V288.132H184.046V289.08H185.198V294H186.326ZM187.808 291.06C187.808 292.872 189.104 294.144 190.868 294.144C192.62 294.144 193.916 292.872 193.916 291.06C193.916 289.248 192.62 287.976 190.868 287.976C189.104 287.976 187.808 289.248 187.808 291.06ZM188.948 291.06C188.948 289.836 189.728 288.984 190.868 288.984C191.996 288.984 192.788 289.836 192.788 291.06C192.788 292.284 191.996 293.136 190.868 293.136C189.728 293.136 188.948 292.284 188.948 291.06ZM115.724 310V301.168H114.596V310H115.724ZM118.86 310.144C119.808 310.144 120.612 309.724 120.912 309.052L121.032 310H121.992V306.316C121.992 304.732 121.008 303.964 119.556 303.964C118.044 303.964 117.036 304.768 117.036 305.992H118.02C118.02 305.284 118.56 304.864 119.508 304.864C120.3 304.864 120.888 305.212 120.888 306.196V306.364L119.04 306.508C117.66 306.616 116.856 307.288 116.856 308.368C116.856 309.436 117.6 310.144 118.86 310.144ZM119.184 309.268C118.452 309.268 117.996 308.956 117.996 308.332C117.996 307.756 118.404 307.372 119.4 307.276L120.9 307.156V307.468C120.9 308.572 120.252 309.268 119.184 309.268ZM122.834 308.296C122.834 309.412 123.71 310.144 125.09 310.144C126.482 310.144 127.442 309.436 127.442 308.32C127.442 307.444 126.95 306.988 125.954 306.748L124.922 306.496C124.346 306.352 124.058 306.088 124.058 305.692C124.058 305.152 124.454 304.84 125.162 304.84C125.846 304.84 126.242 305.212 126.266 305.8H127.346C127.322 304.684 126.482 303.964 125.198 303.964C123.902 303.964 122.99 304.648 122.99 305.728C122.99 306.592 123.482 307.108 124.526 307.36L125.558 307.6C126.17 307.756 126.362 307.996 126.362 308.392C126.362 308.932 125.906 309.256 125.114 309.256C124.37 309.256 123.914 308.896 123.914 308.296H122.834ZM130.109 310V305.08H131.261V304.132H130.109V302.296H128.981V304.132H127.829V305.08H128.981V310H130.109ZM136.203 310V306.52C136.203 305.584 136.767 304.996 137.619 304.996C138.411 304.996 138.915 305.5 138.915 306.424V310H140.031V306.52C140.031 305.584 140.595 304.984 141.447 304.984C142.239 304.984 142.755 305.512 142.755 306.436V310H143.859V306.16C143.859 304.804 143.043 303.964 141.699 303.964C140.787 303.964 140.079 304.42 139.803 305.152C139.503 304.42 138.855 303.964 137.943 303.964C137.115 303.964 136.491 304.348 136.191 304.9L136.083 304.132H135.075V310H136.203ZM144.799 307.06C144.799 308.872 146.095 310.144 147.859 310.144C149.611 310.144 150.907 308.872 150.907 307.06C150.907 305.248 149.611 303.976 147.859 303.976C146.095 303.976 144.799 305.248 144.799 307.06ZM145.939 307.06C145.939 305.836 146.719 304.984 147.859 304.984C148.987 304.984 149.779 305.836 149.779 307.06C149.779 308.284 148.987 309.136 147.859 309.136C146.719 309.136 145.939 308.284 145.939 307.06ZM153.043 310V306.892C153.043 305.752 153.655 304.996 154.711 304.996C155.575 304.996 156.127 305.476 156.127 306.664V310H157.255V306.412C157.255 304.912 156.547 303.964 154.999 303.964C154.171 303.964 153.427 304.36 153.055 305.032L152.935 304.132H151.915V310H153.043ZM160.234 310V305.08H161.386V304.132H160.234V302.296H159.106V304.132H157.954V305.08H159.106V310H160.234ZM163.286 309.988V306.796C163.286 305.788 163.874 304.996 164.966 304.996C165.806 304.996 166.37 305.476 166.37 306.664V310H167.498V306.412C167.498 304.912 166.778 303.964 165.278 303.964C164.366 303.964 163.658 304.396 163.286 305.032V301.168H162.158V309.988H163.286Z" fill="#5E606E"/>
</g>
<defs>
<clipPath id="clip0_283_1506">
<rect width="250" height="250" fill="white" transform="translate(16 120)"/>
</clipPath>
</defs>
</svg>
