<svg width="618" height="641" viewBox="0 0 618 641" fill="none" xmlns="http://www.w3.org/2000/svg">
<path d="M83.2113 372.73L157.164 498.793L224.706 373.798L83.2113 372.73Z" stroke="#232323" stroke-width="1.18704" stroke-linecap="round" stroke-linejoin="round"/>
<path d="M83.2113 372.73L137.103 419.084L157.223 498.793" stroke="#232323" stroke-width="1.18704" stroke-linecap="round" stroke-linejoin="round"/>
<path d="M224.706 373.798L137.103 419.083" stroke="#232323" stroke-width="1.18704" stroke-linecap="round" stroke-linejoin="round"/>
<path d="M73.3589 184.881L142.207 302.16L205.001 185.89L73.3589 184.881Z" stroke="#232323" stroke-width="1.18704" stroke-linecap="round" stroke-linejoin="round"/>
<path d="M142.207 302.16L123.511 227.97L73.3589 184.881L142.207 302.16Z" fill="#232323"/>
<path d="M205.001 185.89L123.452 227.971" stroke="#232323" stroke-width="1.18704" stroke-linecap="round" stroke-linejoin="round"/>
<path d="M276.876 60.5981L224.053 150.635L175.86 61.3697L276.876 60.5981Z" stroke="#232323" stroke-width="1.18704" stroke-linecap="round" stroke-linejoin="round"/>
<path d="M224.053 150.635L238.416 93.7167L276.876 60.6577L224.053 150.635Z" fill="#232323"/>
<path d="M175.8 61.3701L238.357 93.6575" stroke="#232323" stroke-width="1.18704" stroke-linecap="round" stroke-linejoin="round"/>
<path d="M220.848 357.239L179.717 287.145L142.148 356.646L220.848 357.239Z" fill="white" stroke="#232323" stroke-width="1.18704" stroke-linecap="round" stroke-linejoin="round"/>
<path d="M208.562 158.232L180.786 110.928L155.442 157.816L208.562 158.232Z" fill="white" stroke="#232323" stroke-width="1.18704" stroke-linecap="round" stroke-linejoin="round"/>
<path d="M85.7634 315.692L110.157 357.239L132.414 316.048L85.7634 315.692Z" fill="white" stroke="#232323" stroke-width="1.18704" stroke-linecap="round" stroke-linejoin="round"/>
<path d="M367.329 267.617L277.885 419.914L196.336 268.864L367.329 267.617Z" stroke="#232323" stroke-width="1.18704" stroke-linecap="round" stroke-linejoin="round"/>
<path d="M367.329 267.617L302.22 323.586L277.945 419.914" stroke="#232323" stroke-width="1.18704" stroke-linecap="round" stroke-linejoin="round"/>
<path d="M196.336 268.864L302.22 323.527" stroke="#232323" stroke-width="1.18704" stroke-linecap="round" stroke-linejoin="round"/>
<path d="M203.221 485.201C205.714 485.201 207.791 483.183 207.791 480.631C207.791 478.138 205.773 476.061 203.221 476.061C200.728 476.061 198.651 478.079 198.651 480.631C198.651 483.124 200.728 485.201 203.221 485.201Z" fill="#E9E9E9" stroke="#232323" stroke-width="1.18704" stroke-linecap="round" stroke-linejoin="round"/>
<path d="M130.693 165.592C133.067 165.592 135.025 163.633 135.025 161.259C135.025 158.885 133.067 156.926 130.693 156.926C128.319 156.926 126.36 158.885 126.36 161.259C126.36 163.633 128.319 165.592 130.693 165.592Z" fill="#E9E9E9" stroke="#232323" stroke-width="1.18704" stroke-linecap="round" stroke-linejoin="round"/>
<path d="M196.336 250.761L285.72 98.4053L367.329 249.456L196.336 250.761Z" fill="white" stroke="#232323" stroke-width="1.18704" stroke-linecap="round" stroke-linejoin="round"/>
<path d="M196.336 250.762L285.5 208.5" stroke="#232323" stroke-width="1.18704" stroke-linecap="round" stroke-linejoin="round"/>
<path d="M286 208.5L367.328 249.456" stroke="#232323" stroke-width="1.18704" stroke-linecap="round" stroke-linejoin="round"/>
<path d="M285.72 209V98.4053" stroke="#232323" stroke-width="1.18704" stroke-linecap="round" stroke-linejoin="round"/>
<path d="M505.559 373.205H463.123C439.026 373.205 419.499 354.687 419.499 331.896C419.499 309.105 439.026 290.587 463.123 290.587H513.275" stroke="#232323" stroke-width="1.18704" stroke-linecap="round" stroke-linejoin="round"/>
<path d="M495.469 307.443L513.572 290.29" stroke="#232323" stroke-width="1.18704" stroke-linecap="round" stroke-linejoin="round"/>
<path d="M495.469 273.434L513.572 290.587" stroke="#232323" stroke-width="1.18704" stroke-linecap="round" stroke-linejoin="round"/>
<path d="M366.913 249.575H501.761C525.857 249.575 545.384 268.033 545.384 290.884C545.384 313.675 525.857 332.192 501.761 332.192H451.608" stroke="#232323" stroke-width="1.18704" stroke-linecap="round" stroke-linejoin="round"/>
<path d="M469.354 315.336L451.252 332.489" stroke="#232323" stroke-width="1.18704" stroke-linecap="round" stroke-linejoin="round"/>
<path d="M469.354 349.286L451.252 332.133" stroke="#232323" stroke-width="1.18704" stroke-linecap="round" stroke-linejoin="round"/>
<path d="M533.098 383.294H256.163C250.524 383.294 246.013 387.865 246.013 393.444V561.884C246.013 567.523 250.584 572.033 256.163 572.033H533.098C538.737 572.033 543.248 567.463 543.248 561.884V393.503C543.248 387.865 538.737 383.294 533.098 383.294Z" stroke="#232323" stroke-width="1.18704" stroke-linecap="round" stroke-linejoin="round"/>
<path d="M522.178 372.611H245.301C239.663 372.611 235.152 377.181 235.152 382.76V551.201C235.152 556.839 239.722 561.35 245.301 561.35H522.237C527.875 561.35 532.386 556.78 532.386 551.201V382.819C532.386 377.181 527.816 372.611 522.178 372.611Z" fill="url(#paint0_linear_77_1693)"/>
<path d="M314.743 433.566H261.92C261.089 433.566 260.436 434.219 260.436 435.05V473.747C260.436 474.578 261.089 475.231 261.92 475.231H314.743C315.574 475.231 316.227 474.578 316.227 473.747V435.05C316.227 434.219 315.514 433.566 314.743 433.566Z" stroke="white" stroke-width="1.18704" stroke-linecap="round" stroke-linejoin="round"/>
<path d="M507.933 433.566H437.304C436.474 433.566 435.821 434.219 435.821 435.05V473.747C435.821 474.578 436.474 475.231 437.304 475.231H507.933C508.764 475.231 509.417 474.578 509.417 473.747V435.05C509.417 434.219 508.764 433.566 507.933 433.566Z" stroke="white" stroke-width="1.18704" stroke-linecap="round" stroke-linejoin="round"/>
<path d="M261.208 441.756H316.227" stroke="white" stroke-width="1.18704" stroke-linecap="round" stroke-linejoin="round"/>
<path d="M261.208 465.497H316.227" stroke="white" stroke-width="1.18704" stroke-linecap="round" stroke-linejoin="round"/>
<path d="M273.849 434.337V474.459" stroke="white" stroke-width="1.18704" stroke-linecap="round" stroke-linejoin="round"/>
<path d="M302.813 434.337V474.459" stroke="white" stroke-width="1.18704" stroke-linecap="round" stroke-linejoin="round"/>
<path d="M466.98 541.17C476.299 541.17 483.896 533.573 483.896 524.255C483.896 514.937 476.299 507.34 466.98 507.34C457.662 507.34 450.065 514.937 450.065 524.255C450.065 533.573 457.662 541.17 466.98 541.17Z" stroke="white" stroke-width="1.18704" stroke-linecap="round" stroke-linejoin="round"/>
<path d="M491.73 541.17C501.048 541.17 508.645 533.573 508.645 524.255C508.645 514.937 501.048 507.34 491.73 507.34C482.412 507.34 474.815 514.937 474.815 524.255C474.874 533.573 482.412 541.17 491.73 541.17Z" stroke="white" stroke-width="1.18704" stroke-linecap="round" stroke-linejoin="round"/>
<path d="M269.161 488.585H266.609C266.074 488.585 265.659 489 265.659 489.535V495.826C265.659 496.36 266.074 496.776 266.609 496.776H269.161C269.695 496.776 270.11 496.36 270.11 495.826V489.535C270.11 489 269.695 488.585 269.161 488.585Z" stroke="white" stroke-width="1.18704" stroke-linecap="round" stroke-linejoin="round"/>
<path d="M281.09 488.585H278.538C278.004 488.585 277.589 489 277.589 489.535V495.826C277.589 496.36 278.004 496.776 278.538 496.776H281.09C281.625 496.776 282.04 496.36 282.04 495.826V489.535C281.981 489 281.565 488.585 281.09 488.585Z" stroke="white" stroke-width="1.18704" stroke-linecap="round" stroke-linejoin="round"/>
<path d="M292.961 488.585H290.409C289.874 488.585 289.459 489 289.459 489.535V495.826C289.459 496.36 289.874 496.776 290.409 496.776H292.961C293.495 496.776 293.91 496.36 293.91 495.826V489.535C293.91 489 293.495 488.585 292.961 488.585Z" stroke="white" stroke-width="1.18704" stroke-linecap="round" stroke-linejoin="round"/>
<path d="M304.831 488.585H302.279C301.745 488.585 301.329 489 301.329 489.535V495.826C301.329 496.36 301.745 496.776 302.279 496.776H304.831C305.365 496.776 305.781 496.36 305.781 495.826V489.535C305.781 489 305.365 488.585 304.831 488.585Z" stroke="white" stroke-width="1.18704" stroke-linecap="round" stroke-linejoin="round"/>
<path d="M327.147 488.585H324.595C324.061 488.585 323.646 489 323.646 489.535V495.826C323.646 496.36 324.061 496.776 324.595 496.776H327.147C327.682 496.776 328.097 496.36 328.097 495.826V489.535C328.097 489 327.682 488.585 327.147 488.585Z" stroke="white" stroke-width="1.18704" stroke-linecap="round" stroke-linejoin="round"/>
<path d="M339.018 488.585H336.466C335.932 488.585 335.516 489 335.516 489.535V495.826C335.516 496.36 335.932 496.776 336.466 496.776H339.018C339.552 496.776 339.967 496.36 339.967 495.826V489.535C339.967 489 339.552 488.585 339.018 488.585Z" stroke="white" stroke-width="1.18704" stroke-linecap="round" stroke-linejoin="round"/>
<path d="M350.948 488.585H348.395C347.861 488.585 347.446 489 347.446 489.535V495.826C347.446 496.36 347.861 496.776 348.395 496.776H350.948C351.482 496.776 351.897 496.36 351.897 495.826V489.535C351.838 489 351.422 488.585 350.948 488.585Z" stroke="white" stroke-width="1.18704" stroke-linecap="round" stroke-linejoin="round"/>
<path d="M362.818 488.585H360.266C359.732 488.585 359.316 489 359.316 489.535V495.826C359.316 496.36 359.732 496.776 360.266 496.776H362.818C363.352 496.776 363.768 496.36 363.768 495.826V489.535C363.768 489 363.352 488.585 362.818 488.585Z" stroke="white" stroke-width="1.18704" stroke-linecap="round" stroke-linejoin="round"/>
<path d="M383.591 488.585H381.039C380.505 488.585 380.089 489 380.089 489.535V495.826C380.089 496.36 380.505 496.776 381.039 496.776H383.591C384.125 496.776 384.541 496.36 384.541 495.826V489.535C384.541 489 384.125 488.585 383.591 488.585Z" stroke="white" stroke-width="1.18704" stroke-linecap="round" stroke-linejoin="round"/>
<path d="M395.521 488.585H392.909C392.375 488.585 391.96 489 391.96 489.535V495.826C391.96 496.36 392.375 496.776 392.909 496.776H395.461C395.996 496.776 396.411 496.36 396.411 495.826V489.535C396.47 489 396.055 488.585 395.521 488.585Z" stroke="white" stroke-width="1.18704" stroke-linecap="round" stroke-linejoin="round"/>
<path d="M407.391 488.585H404.839C404.305 488.585 403.889 489 403.889 489.535V495.826C403.889 496.36 404.305 496.776 404.839 496.776H407.391C407.925 496.776 408.341 496.36 408.341 495.826V489.535C408.341 489 407.925 488.585 407.391 488.585Z" stroke="white" stroke-width="1.18704" stroke-linecap="round" stroke-linejoin="round"/>
<path d="M419.321 488.585H416.769C416.235 488.585 415.819 489 415.819 489.535V495.826C415.819 496.36 416.235 496.776 416.769 496.776H419.321C419.855 496.776 420.27 496.36 420.27 495.826V489.535C420.211 489 419.796 488.585 419.321 488.585Z" stroke="white" stroke-width="1.18704" stroke-linecap="round" stroke-linejoin="round"/>
<path d="M442.349 488.585H439.797C439.263 488.585 438.848 489 438.848 489.535V495.826C438.848 496.36 439.263 496.776 439.797 496.776H442.349C442.884 496.776 443.299 496.36 443.299 495.826V489.535C443.299 489 442.824 488.585 442.349 488.585Z" stroke="white" stroke-width="1.18704" stroke-linecap="round" stroke-linejoin="round"/>
<path d="M454.22 488.585H451.668C451.133 488.585 450.718 489 450.718 489.535V495.826C450.718 496.36 451.133 496.776 451.668 496.776H454.22C454.754 496.776 455.169 496.36 455.169 495.826V489.535C455.169 489 454.754 488.585 454.22 488.585Z" stroke="white" stroke-width="1.18704" stroke-linecap="round" stroke-linejoin="round"/>
<path d="M466.09 488.585H463.538C463.004 488.585 462.588 489 462.588 489.535V495.826C462.588 496.36 463.004 496.776 463.538 496.776H466.09C466.624 496.776 467.04 496.36 467.04 495.826V489.535C467.04 489 466.624 488.585 466.09 488.585Z" stroke="white" stroke-width="1.18704" stroke-linecap="round" stroke-linejoin="round"/>
<path d="M478.02 488.585H475.408C474.874 488.585 474.459 489 474.459 489.535V495.826C474.459 496.36 474.874 496.776 475.408 496.776H477.96C478.495 496.776 478.91 496.36 478.91 495.826V489.535C478.969 489 478.495 488.585 478.02 488.585Z" stroke="white" stroke-width="1.18704" stroke-linecap="round" stroke-linejoin="round"/>
<path d="M365.251 514.581V520.516" stroke="white" stroke-width="1.18704" stroke-linecap="round" stroke-linejoin="round"/>
<path d="M374.154 514.581V520.516" stroke="white" stroke-width="1.18704" stroke-linecap="round" stroke-linejoin="round"/>
<path d="M389.051 514.581V520.516" stroke="white" stroke-width="1.18704" stroke-linecap="round" stroke-linejoin="round"/>
<path d="M397.954 514.581V520.516" stroke="white" stroke-width="1.18704" stroke-linecap="round" stroke-linejoin="round"/>
<defs>
<linearGradient id="paint0_linear_77_1693" x1="383.349" y1="398.898" x2="384.509" y2="604.303" gradientUnits="userSpaceOnUse">
<stop stop-color="#3B3BA9"/>
<stop offset="1" stop-color="#6EE4F4"/>
</linearGradient>
</defs>
</svg>
