<svg width="140" height="59" viewBox="0 0 140 59" fill="none" xmlns="http://www.w3.org/2000/svg">
<path d="M25.1153 44.9514H9.94728C5.77608 44.9514 2.36328 41.6034 2.36328 37.5114V22.6314C2.36328 18.5394 5.77608 15.1914 9.94728 15.1914H25.1153C29.2865 15.1914 32.6993 18.5394 32.6993 22.6314V37.5114C32.6993 41.6034 29.2865 44.9514 25.1153 44.9514Z" stroke="#0069FF" stroke-width="3" stroke-miterlimit="10" stroke-linecap="round" stroke-linejoin="round"/>
<path d="M49.4071 35.4551H40.0156V38.3567H49.4071V35.4551Z" fill="#0069FF"/>
<path d="M49.4071 22.4219H40.0156V25.3235H49.4071V22.4219Z" fill="#0069FF"/>
<path d="M62.2788 22.4219H51.2188V25.3235H62.2788V22.4219Z" fill="#0069FF"/>
<path d="M76.345 28.9375H65.285V31.8391H76.345V28.9375Z" fill="#0069FF"/>
<path d="M48.7655 29.0176H40.2461V31.8262H48.7655V29.0176Z" fill="#0069FF"/>
<path d="M43.4221 24.6465H40.0156V38.3485H43.4221V24.6465Z" fill="#0069FF"/>
<path d="M58.4534 24.6465H55.0469V38.3485H58.4534V24.6465Z" fill="#0069FF"/>
<path d="M68.1877 22.4219H64.7812V38.3559H68.1877V22.4219Z" fill="#0069FF"/>
<path d="M78.4494 22.4219H75.043V38.3559H78.4494V22.4219Z" fill="#0069FF"/>
<path d="M88.1562 22.4219H91.7081L95.9425 34.5367L100.139 22.4219H103.842L97.8132 38.3559H94.0718L88.1562 22.4219Z" fill="#0069FF"/>
<path d="M117.931 28.0945L120.983 26.9723C120.983 26.9723 119.15 22.0309 112.894 22.1425C106.441 22.6695 104.456 28.0201 105.145 31.6905C105.834 35.3609 108.425 38.8453 114.075 38.5787C119.725 38.3183 120.983 33.7117 120.983 33.7117L117.817 32.7383C117.817 32.7383 116.976 35.3609 113.81 35.6585C110.719 35.8445 108.16 33.9721 108.425 29.9669C108.748 26.3895 111.642 25.0131 113.475 25.1247C115.339 25.2363 116.515 25.4719 117.931 28.0945Z" fill="#0069FF"/>
<path d="M84.1129 38.5552C85.1461 38.5552 85.9836 37.7335 85.9836 36.72C85.9836 35.7064 85.1461 34.8848 84.1129 34.8848C83.0797 34.8848 82.2422 35.7064 82.2422 36.72C82.2422 37.7335 83.0797 38.5552 84.1129 38.5552Z" fill="#0069FF"/>
<path d="M8.67578 31.1934C8.67578 31.1934 12.1518 34.9444 17.2078 34.8886C22.2638 34.8328 25.8725 31.46 25.8725 31.46" stroke="#0069FF" stroke-width="3" stroke-miterlimit="10" stroke-linecap="round" stroke-linejoin="round"/>
<path d="M11.6289 37.8163L16.1035 24.9451C16.4131 24.1329 18.4039 24.0833 18.7073 24.8955L22.79 37.8225" stroke="#0069FF" stroke-width="3" stroke-miterlimit="10" stroke-linecap="round" stroke-linejoin="round"/>
</svg>
