<svg width="75" height="75" viewBox="0 0 75 75" fill="none" xmlns="http://www.w3.org/2000/svg">
<path d="M73.5682 37.2509C73.5682 17.5386 57.5882 1.55859 37.8759 1.55859C18.1636 1.55859 2.18359 17.5386 2.18359 37.2509C2.18359 56.9632 18.1636 72.9432 37.8759 72.9432C57.5882 72.9432 73.5682 56.9632 73.5682 37.2509Z" fill="url(#paint0_radial_0_13922)"/>
<path d="M37.8744 69.0379C55.4307 69.0379 69.6629 54.8057 69.6629 37.2494C69.6629 19.6931 55.4307 5.46094 37.8744 5.46094C20.3181 5.46094 6.08594 19.6931 6.08594 37.2494C6.08594 54.8057 20.3181 69.0379 37.8744 69.0379Z" stroke="#253859" stroke-opacity="0.08" stroke-width="1.36792"/>
<path d="M74.125 37.25C74.125 17.2297 57.8953 1 37.875 1C17.8547 1 1.625 17.2297 1.625 37.25C1.625 57.2703 17.8547 73.5 37.875 73.5C57.8953 73.5 74.125 57.2703 74.125 37.25Z" stroke="#0D2247" stroke-opacity="0.15" stroke-width="1.36792"/>
<defs>
<radialGradient id="paint0_radial_0_13922" cx="0" cy="0" r="1" gradientUnits="userSpaceOnUse" gradientTransform="translate(37.8759 10.4817) rotate(90) scale(62.4615 87.5577)">
<stop offset="0.276786" stop-color="white"/>
<stop offset="0.830357" stop-color="white" stop-opacity="0.8"/>
</radialGradient>
</defs>
</svg>
