<svg width="24" height="25" viewBox="0 0 24 25" fill="none" xmlns="http://www.w3.org/2000/svg">
<g clip-path="url(#clip0_41_3190)">
<path d="M12 24.9102C18.6274 24.9102 24 19.5376 24 12.9102C24 6.28274 18.6274 0.910156 12 0.910156C5.37258 0.910156 0 6.28274 0 12.9102C0 19.5376 5.37258 24.9102 12 24.9102Z" fill="#F0F0F0"/>
<path d="M2.4813 5.60425C1.53869 6.83064 0.827922 8.24415 0.414062 9.77973H6.65678L2.4813 5.60425Z" fill="#0052B4"/>
<path d="M23.5864 9.77969C23.1725 8.24415 22.4617 6.83064 21.5191 5.60425L17.3438 9.77969H23.5864Z" fill="#0052B4"/>
<path d="M0.414062 16.0405C0.827969 17.5761 1.53873 18.9896 2.4813 20.2159L6.65664 16.0405H0.414062Z" fill="#0052B4"/>
<path d="M19.3063 3.39077C18.0799 2.44816 16.6664 1.73739 15.1309 1.32349V7.56616L19.3063 3.39077Z" fill="#0052B4"/>
<path d="M4.69531 22.4295C5.9217 23.3721 7.33522 24.0829 8.87075 24.4968V18.2542L4.69531 22.4295Z" fill="#0052B4"/>
<path d="M8.8707 1.32349C7.33517 1.73739 5.92166 2.44816 4.69531 3.39072L8.8707 7.56611V1.32349Z" fill="#0052B4"/>
<path d="M15.1309 24.4968C16.6664 24.0829 18.0799 23.3721 19.3063 22.4295L15.1309 18.2542V24.4968Z" fill="#0052B4"/>
<path d="M17.3438 16.0405L21.5191 20.216C22.4617 18.9896 23.1725 17.5761 23.5864 16.0405H17.3438Z" fill="#0052B4"/>
<path d="M23.8984 11.345H13.5653H13.5653V1.01173C13.0529 0.945031 12.5305 0.910156 12 0.910156C11.4694 0.910156 10.9471 0.945031 10.4348 1.01173V11.3449V11.3449H0.101578C0.034875 11.8573 0 12.3797 0 12.9102C0 13.4407 0.034875 13.963 0.101578 14.4754H10.4347H10.4347V24.8086C10.9471 24.8753 11.4694 24.9102 12 24.9102C12.5305 24.9102 13.0529 24.8753 13.5652 24.8086V14.4755V14.4754H23.8984C23.9651 13.963 24 13.4407 24 12.9102C24 12.3797 23.9651 11.8573 23.8984 11.345Z" fill="#D80027"/>
<path d="M15.1309 16.0406L20.4857 21.3954C20.732 21.1492 20.9669 20.8918 21.191 20.625L16.6066 16.0405H15.1309V16.0406Z" fill="#D80027"/>
<path d="M8.87048 16.0408H8.87039L3.51562 21.3955C3.76181 21.6418 4.0192 21.8768 4.28602 22.1009L8.87048 17.5163V16.0408Z" fill="#D80027"/>
<path d="M8.86878 9.77976V9.77966L3.51397 4.4248C3.26769 4.67099 3.03275 4.92838 2.80859 5.1952L7.39311 9.77971H8.86878V9.77976Z" fill="#D80027"/>
<path d="M15.1309 9.77972L20.4857 4.42481C20.2395 4.17853 19.9821 3.94359 19.7153 3.71948L15.1309 8.304V9.77972Z" fill="#D80027"/>
</g>
<defs>
<clipPath id="clip0_41_3190">
<rect width="24" height="24" fill="white" transform="translate(0 0.910156)"/>
</clipPath>
</defs>
</svg>
