<svg width="69" height="69" viewBox="0 0 69 69" fill="none" xmlns="http://www.w3.org/2000/svg">
<g filter="url(#filter0_bi_0_13639)">
<path d="M20.0107 34.193C20.0107 31.5363 20.6658 29.2647 21.9758 27.378C23.2859 25.4914 25.0776 24.0668 27.351 23.1043C29.4317 22.2187 31.994 21.5834 35.038 21.1984C36.0784 21.0829 37.7737 20.9289 40.1242 20.7364V19.7546C40.1242 17.2904 39.8544 15.6348 39.315 14.7877C38.5058 13.6327 37.2343 13.0551 35.5004 13.0551H35.038C33.7665 13.1706 32.6683 13.5749 31.7436 14.268C30.8188 14.961 30.2215 15.9236 29.9519 17.1556C29.7977 17.9257 29.4124 18.3685 28.7959 18.484L22.1492 17.6754C21.4942 17.5214 21.1667 17.1749 21.1667 16.6359C21.1667 16.5204 21.1859 16.3856 21.2245 16.2316C21.8795 12.8049 23.4882 10.2637 26.0506 8.60811C28.6129 6.95249 31.6087 6.02843 35.038 5.83594H36.4829C40.8755 5.83594 44.3048 6.97178 46.7708 9.2434C47.1576 9.63018 47.5151 10.0452 47.8401 10.4851C48.1676 10.9279 48.4277 11.3225 48.6204 11.6691C48.813 12.0156 48.9864 12.5161 49.1405 13.1706C49.2946 13.8252 49.4102 14.2776 49.4873 14.5279C49.5644 14.7781 49.6222 15.3172 49.6607 16.145C49.6992 16.9727 49.7185 17.4636 49.7185 17.6177V31.594C49.7185 32.5951 49.863 33.5096 50.152 34.3373C50.441 35.1651 50.7203 35.762 50.99 36.1277C51.2597 36.4935 51.7029 37.0806 52.3194 37.8892C52.5506 38.2357 52.6662 38.5437 52.6662 38.8133C52.6662 39.1213 52.512 39.3908 52.2038 39.6218C49.0056 42.394 47.2717 43.8956 47.002 44.1266C46.5397 44.4731 45.9809 44.5116 45.3259 44.2421C44.7864 43.7801 44.3145 43.3373 43.9099 42.9138C43.5053 42.4902 43.2163 42.1822 43.0429 41.9897C42.8695 41.7972 42.5901 41.4218 42.2049 40.8635C41.8195 40.3052 41.5498 39.9298 41.3957 39.7373C39.2379 42.086 37.1187 43.549 35.038 44.1266C33.7279 44.5116 32.1096 44.7041 30.1831 44.7041C27.2161 44.7041 24.779 43.7897 22.8717 41.9608C20.9644 40.1319 20.0107 37.5427 20.0107 34.193ZM29.9519 33.0379C29.9519 34.5395 30.3275 35.7427 31.0789 36.6475C31.8303 37.5523 32.8417 38.0047 34.1133 38.0047C34.2289 38.0047 34.3926 37.9855 34.6045 37.9469C34.8164 37.9084 34.9609 37.8892 35.038 37.8892C36.6563 37.4657 37.9086 36.4261 38.7948 34.7705C39.2187 34.0389 39.5365 33.24 39.7485 32.3737C39.9604 31.5074 40.076 30.8047 40.0953 30.2657C40.1145 29.7267 40.1242 28.8411 40.1242 27.609V26.1652C37.8893 26.1652 36.194 26.3192 35.038 26.6272C31.6472 27.5898 29.9519 29.7267 29.9519 33.0379Z" fill="url(#paint0_linear_0_13639)"/>
</g>
<g filter="url(#filter1_i_0_13639)">
<path d="M3.53931 50.5965C3.11543 50.327 2.80719 50.3463 2.61456 50.6543C2.53746 50.7698 2.49896 50.8853 2.49896 51.0008C2.49896 51.1933 2.61456 51.3858 2.84575 51.5783C7.08419 55.3901 11.8814 58.3451 17.2373 60.4435C22.5931 62.5419 28.2765 63.5911 34.2874 63.5911C38.1791 63.5911 42.1671 63.0521 46.2514 61.974C50.3357 60.8959 54.0348 59.3751 57.3485 57.4114C58.4274 56.7569 59.3136 56.1794 60.0072 55.6788C60.5466 55.2938 60.6525 54.8703 60.3251 54.4082C59.9975 53.9462 59.5448 53.8307 58.9668 54.0617C58.8127 54.1387 58.5526 54.2542 58.1866 54.4082C57.8205 54.5623 57.5412 54.6778 57.3485 54.7548C49.989 57.5655 42.5331 58.9708 34.981 58.9708C23.6527 58.9708 13.1721 56.1794 3.53931 50.5965Z" fill="url(#paint1_linear_0_13639)"/>
<path d="M54.5742 51.174C54.4201 51.3281 54.3045 51.482 54.2275 51.6361C54.1889 51.7131 54.1697 51.7708 54.1697 51.8093C54.1311 51.8863 54.1504 51.9634 54.2275 52.0403C54.3045 52.1173 54.4586 52.1559 54.6898 52.1559C55.499 52.0403 56.3852 51.9248 57.3485 51.8093C58.2347 51.7323 59.0053 51.6938 59.6604 51.6938C61.4328 51.6938 62.5117 51.9248 62.897 52.3869C63.0511 52.5794 63.1282 52.8874 63.1282 53.3109C63.1282 54.62 62.4154 56.9494 60.9897 60.2991C60.8741 60.6071 60.9319 60.8189 61.1631 60.9344C61.2402 60.9729 61.3172 60.9922 61.3943 60.9922C61.5484 60.9922 61.7218 60.9152 61.9145 60.7611C63.2245 59.6446 64.2456 58.1719 64.9777 56.343C65.7098 54.5141 66.0759 52.9259 66.0759 51.5783V51.174C66.0759 50.712 65.9988 50.3655 65.8447 50.1345C65.4979 49.711 64.4576 49.4222 62.7237 49.2682C62.3769 49.1912 62.0108 49.1719 61.6255 49.2104C60.2384 49.2489 58.8127 49.4607 57.3485 49.8457C56.4622 50.0767 55.5375 50.5195 54.5742 51.174Z" fill="url(#paint2_linear_0_13639)"/>
</g>
<defs>
<filter id="filter0_bi_0_13639" x="17.7591" y="3.58425" width="37.1588" height="43.3715" filterUnits="userSpaceOnUse" color-interpolation-filters="sRGB">
<feFlood flood-opacity="0" result="BackgroundImageFix"/>
<feGaussianBlur in="BackgroundImageFix" stdDeviation="1.12584"/>
<feComposite in2="SourceAlpha" operator="in" result="effect1_backgroundBlur_0_13639"/>
<feBlend mode="normal" in="SourceGraphic" in2="effect1_backgroundBlur_0_13639" result="shape"/>
<feColorMatrix in="SourceAlpha" type="matrix" values="0 0 0 0 0 0 0 0 0 0 0 0 0 0 0 0 0 0 127 0" result="hardAlpha"/>
<feOffset/>
<feGaussianBlur stdDeviation="2.45036"/>
<feComposite in2="hardAlpha" operator="arithmetic" k2="-1" k3="1"/>
<feColorMatrix type="matrix" values="0 0 0 0 1 0 0 0 0 1 0 0 0 0 1 0 0 0 0.55 0"/>
<feBlend mode="normal" in2="shape" result="effect2_innerShadow_0_13639"/>
</filter>
<filter id="filter1_i_0_13639" x="2.49896" y="49.1912" width="63.5769" height="14.3999" filterUnits="userSpaceOnUse" color-interpolation-filters="sRGB">
<feFlood flood-opacity="0" result="BackgroundImageFix"/>
<feBlend mode="normal" in="SourceGraphic" in2="BackgroundImageFix" result="shape"/>
<feColorMatrix in="SourceAlpha" type="matrix" values="0 0 0 0 0 0 0 0 0 0 0 0 0 0 0 0 0 0 127 0" result="hardAlpha"/>
<feOffset/>
<feGaussianBlur stdDeviation="1.49008"/>
<feComposite in2="hardAlpha" operator="arithmetic" k2="-1" k3="1"/>
<feColorMatrix type="matrix" values="0 0 0 0 1 0 0 0 0 1 0 0 0 0 1 0 0 0 0.65 0"/>
<feBlend mode="normal" in2="shape" result="effect1_innerShadow_0_13639"/>
</filter>
<linearGradient id="paint0_linear_0_13639" x1="66.0752" y1="34.7128" x2="2.49819" y2="34.7128" gradientUnits="userSpaceOnUse">
<stop stop-color="#0C0C0C"/>
<stop offset="0.786458"/>
<stop offset="1" stop-color="white"/>
</linearGradient>
<linearGradient id="paint1_linear_0_13639" x1="31.6581" y1="46.1406" x2="31.6581" y2="63.5911" gradientUnits="userSpaceOnUse">
<stop stop-color="#FF9A00"/>
<stop offset="1" stop-color="#FF9A00"/>
</linearGradient>
<linearGradient id="paint2_linear_0_13639" x1="31.6581" y1="46.1406" x2="31.6581" y2="63.5911" gradientUnits="userSpaceOnUse">
<stop stop-color="#FF9A00"/>
<stop offset="1" stop-color="#FF9A00"/>
</linearGradient>
</defs>
</svg>
