<svg width="24" height="25" viewBox="0 0 24 25" fill="none" xmlns="http://www.w3.org/2000/svg">
<g clip-path="url(#clip0_41_1907)">
<path d="M12 24.0469C18.6274 24.0469 24 18.6743 24 12.0469C24 5.41946 18.6274 0.046875 12 0.046875C5.37258 0.046875 0 5.41946 0 12.0469C0 18.6743 5.37258 24.0469 12 24.0469Z" fill="#0052B4"/>
<path d="M11.9993 4.74268L12.3878 5.93841H13.645L12.6279 6.67739L13.0164 7.87313L11.9993 7.1341L10.9821 7.87313L11.3707 6.67739L10.3535 5.93841H11.6107L11.9993 4.74268Z" fill="#FFDA44"/>
<path d="M6.83377 6.88215L7.95408 7.4529L8.84306 6.56396L8.64633 7.80568L9.76659 8.37648L8.52483 8.57317L8.32814 9.81498L7.75734 8.69471L6.51562 8.89145L7.40461 8.00247L6.83377 6.88215Z" fill="#FFDA44"/>
<path d="M4.69531 12.0471L5.89105 11.6586V10.4014L6.62998 11.4186L7.82577 11.03L7.08669 12.0471L7.82577 13.0643L6.62998 12.6758L5.89105 13.6929V12.4357L4.69531 12.0471Z" fill="#FFDA44"/>
<path d="M6.83377 17.2121L7.40456 16.0918L6.51562 15.2028L7.75739 15.3996L8.32809 14.2793L8.52483 15.5211L9.76655 15.7178L8.64642 16.2885L8.84306 17.5303L7.95408 16.6413L6.83377 17.2121Z" fill="#FFDA44"/>
<path d="M11.9993 19.3515L11.6107 18.1558H10.3535L11.3707 17.4168L10.9821 16.2212L11.9993 16.9601L13.0164 16.2212L12.6279 17.4168L13.645 18.1558H12.3878L11.9993 19.3515Z" fill="#FFDA44"/>
<path d="M17.1652 17.2121L16.0449 16.6413L15.1559 17.5303L15.3526 16.2885L14.2324 15.7178L15.4741 15.5211L15.6708 14.2793L16.2416 15.3996L17.4833 15.2028L16.5943 16.0919L17.1652 17.2121Z" fill="#FFDA44"/>
<path d="M19.3042 12.0471L18.1085 12.4357V13.6929L17.3695 12.6757L16.1738 13.0643L16.9128 12.0471L16.1738 11.03L17.3695 11.4186L18.1085 10.4014V11.6586L19.3042 12.0471Z" fill="#FFDA44"/>
<path d="M17.1652 6.88211L16.5944 8.00242L17.4833 8.8914L16.2415 8.69462L15.6708 9.81489L15.4741 8.57312L14.2324 8.37639L15.3526 7.80564L15.1559 6.56396L16.0449 7.4529L17.1652 6.88211Z" fill="#FFDA44"/>
</g>
<defs>
<clipPath id="clip0_41_1907">
<rect width="24" height="24" fill="white" transform="translate(0 0.046875)"/>
</clipPath>
</defs>
</svg>
