<svg width="24" height="24" viewBox="0 0 24 24" fill="none" xmlns="http://www.w3.org/2000/svg">
<circle cx="12" cy="12" r="12" fill="#0033AD"/>
<path d="M8.3838 11.9437C8.34965 12.5472 8.80382 13.0646 9.39859 13.0999H9.45746C10.0442 13.0992 10.5225 12.6223 10.5333 12.0271C10.5441 11.4319 10.0834 10.9374 9.49709 10.9149C8.91079 10.8923 8.41452 11.35 8.38086 11.9443L8.3838 11.9437Z" fill="white"/>
<path d="M4.36733 11.6666C4.17557 11.6557 4.01139 11.8045 4.00056 11.9991C3.98973 12.1936 4.13635 12.3603 4.3281 12.3714C4.51984 12.3824 4.68417 12.2338 4.69519 12.0392C4.70065 11.9457 4.66913 11.8537 4.60759 11.7838C4.54606 11.7138 4.45959 11.6717 4.36733 11.6666Z" fill="white"/>
<path d="M8.31632 5.6005C8.48707 5.51154 8.55476 5.29922 8.4677 5.12565C8.38064 4.95208 8.17162 4.88262 8.00023 4.97032C7.82884 5.05801 7.75962 5.26982 7.84542 5.44403C7.88715 5.5284 7.96034 5.59237 8.04876 5.62175C8.13717 5.65113 8.23349 5.64348 8.31632 5.6005Z" fill="white"/>
<path d="M9.40933 7.53431C9.67458 7.39856 9.78117 7.07037 9.64743 6.80123C9.5137 6.53208 9.19026 6.42385 8.92495 6.55947C8.65964 6.69509 8.55289 7.02322 8.6865 7.29243C8.7507 7.4218 8.86295 7.51997 8.99852 7.56534C9.13409 7.6107 9.28187 7.59954 9.40933 7.53431Z" fill="white"/>
<path d="M5.731 8.86428C5.88083 8.96425 6.07528 8.96277 6.22361 8.86052C6.37195 8.75828 6.44494 8.57542 6.40854 8.39726C6.37214 8.2191 6.23352 8.08075 6.05735 8.04676C5.88118 8.01276 5.70218 8.08982 5.60386 8.24198C5.46978 8.44948 5.52667 8.72795 5.731 8.86428Z" fill="white"/>
<path d="M6.38669 11.4677C6.0901 11.4507 5.83608 11.6808 5.81924 11.9817C5.8024 12.2826 6.02912 12.5404 6.32569 12.5576C6.62227 12.5748 6.87645 12.3449 6.89349 12.044C6.91023 11.7429 6.68342 11.485 6.38669 11.4677Z" fill="white"/>
<path d="M5.79028 15.1375C5.57185 15.2495 5.48423 15.5199 5.59456 15.7415C5.70489 15.9632 5.9714 16.0522 6.18989 15.9403C6.40839 15.8284 6.49616 15.558 6.38597 15.3363C6.33301 15.2298 6.24047 15.1489 6.12874 15.1116C6.01702 15.0743 5.89526 15.0836 5.79028 15.1375Z" fill="white"/>
<path d="M7.88017 10.3393C8.17272 10.5338 8.5653 10.4509 8.75705 10.1541C8.94879 9.85734 8.86712 9.45903 8.57461 9.26445C8.28209 9.06988 7.8895 9.15271 7.6977 9.44947C7.60541 9.59197 7.57279 9.76586 7.60702 9.9328C7.64125 10.0997 7.73953 10.246 7.88017 10.3393Z" fill="white"/>
<path d="M14.5161 7.49126C14.7651 7.65611 15.0988 7.58493 15.2613 7.33226C15.4239 7.0796 15.3538 6.74108 15.1048 6.57607C14.8559 6.41107 14.5222 6.48203 14.3595 6.73459C14.2811 6.85593 14.2536 7.00393 14.283 7.1459C14.3123 7.28787 14.3962 7.41214 14.5161 7.49126Z" fill="white"/>
<path d="M15.6204 5.56356C15.7383 5.64198 15.8911 5.64058 16.0076 5.56003C16.1241 5.47947 16.1813 5.33563 16.1525 5.19561C16.1237 5.05559 16.0146 4.94698 15.876 4.92045C15.7375 4.89393 15.5968 4.95471 15.5197 5.07444C15.4145 5.23774 15.4596 5.45662 15.6204 5.56356Z" fill="white"/>
<path d="M14.6003 10.9032C14.0062 10.8686 13.4969 11.3291 13.4627 11.9319C13.4286 12.5347 13.8826 13.0514 14.4766 13.086C14.4973 13.086 14.5184 13.086 14.539 13.086C14.9636 13.0858 15.3484 12.8326 15.5218 12.4394C15.6952 12.0462 15.6247 11.5864 15.3419 11.2651C15.1525 11.0484 14.8853 10.918 14.6003 10.9032Z" fill="white"/>
<path d="M9.76256 10.2636C9.94497 10.6334 10.318 10.8664 10.7256 10.865C11.1001 10.8651 11.4478 10.6679 11.6439 10.3442C11.8401 10.0205 11.8565 9.61667 11.6874 9.27765C11.5037 8.90964 11.1309 8.67846 10.7244 8.68043C10.351 8.68108 10.0046 8.87771 9.80872 9.20016C9.61283 9.52262 9.59536 9.92497 9.76256 10.2636Z" fill="white"/>
<path d="M18.2094 8.86324C18.4279 8.75138 18.5157 8.48107 18.4055 8.25936C18.2954 8.03765 18.029 7.94845 17.8104 8.06009C17.5919 8.17172 17.5038 8.44195 17.6137 8.66377C17.724 8.88563 17.9906 8.9749 18.2094 8.86324Z" fill="white"/>
<path d="M15.4775 9.21122C15.1651 9.37086 15.0394 9.75723 15.1967 10.0742C15.3541 10.3912 15.7349 10.5187 16.0473 10.3591C16.3597 10.1994 16.4854 9.81306 16.3281 9.49609C16.2526 9.34376 16.1206 9.22813 15.961 9.17469C15.8015 9.12125 15.6275 9.13439 15.4775 9.21122Z" fill="white"/>
<path d="M11.9591 5.39869C12.1381 5.40904 12.3056 5.30894 12.3835 5.14508C12.4614 4.98122 12.4343 4.78589 12.3149 4.65019C12.1954 4.5145 12.0072 4.46517 11.838 4.52523C11.6687 4.58528 11.5518 4.74287 11.5417 4.92451C11.528 5.17234 11.7148 5.38458 11.9591 5.39869Z" fill="white"/>
<path d="M11.9534 8.22904C12.3025 8.2489 12.6014 7.97793 12.6212 7.62371C12.6409 7.26948 12.374 6.96606 12.0248 6.94588C11.6757 6.9257 11.3765 7.1964 11.3565 7.5506C11.3368 7.90514 11.6039 8.20883 11.9534 8.22904Z" fill="white"/>
<path d="M8.52202 14.7887C8.75078 14.6717 8.88753 14.4264 8.86849 14.1671C8.84946 13.9079 8.67838 13.6859 8.43505 13.6046C8.19171 13.5232 7.92406 13.5986 7.7569 13.7956C7.58975 13.9926 7.55602 14.2724 7.67145 14.5044C7.82901 14.8212 8.20976 14.9484 8.52202 14.7887Z" fill="white"/>
<path d="M12.3637 9.1665C12.0935 9.58494 12.1377 10.1361 12.4712 10.5046C12.8047 10.8731 13.3422 10.9649 13.7761 10.7274C14.2101 10.4899 14.4297 9.98372 14.3093 9.4986C14.1888 9.01348 13.7591 8.67325 13.2661 8.67261C12.9025 8.67235 12.5632 8.85804 12.3637 9.1665Z" fill="white"/>
<path d="M14.2364 13.7369C13.9975 13.2564 13.4494 13.0238 12.9445 13.1887C12.4396 13.3536 12.1281 13.8669 12.2104 14.3985C12.2926 14.9302 12.7441 15.3219 13.2745 15.3219C13.4431 15.3208 13.6092 15.2799 13.7596 15.2025C14.2891 14.9305 14.5023 14.2753 14.2364 13.7369Z" fill="white"/>
<path d="M16.1177 13.6607C15.8253 13.4659 15.4326 13.5485 15.2407 13.8452C15.0487 14.1419 15.1302 14.5403 15.4226 14.735C15.715 14.9298 16.1076 14.8472 16.2996 14.5505C16.4909 14.2537 16.4096 13.8558 16.1177 13.6607Z" fill="white"/>
<path d="M18.1806 12.0188C18.1974 11.7178 17.9706 11.4601 17.674 11.443C17.3774 11.4259 17.1233 11.656 17.1064 11.9569C17.0894 12.2578 17.316 12.5157 17.6126 12.533C17.9094 12.5499 18.1636 12.3198 18.1806 12.0188Z" fill="white"/>
<path d="M19.6712 11.63C19.5305 11.6218 19.3988 11.7004 19.3375 11.8291C19.2761 11.9579 19.2973 12.1114 19.3911 12.2182C19.4848 12.3249 19.6328 12.3639 19.7659 12.3168C19.899 12.2698 19.991 12.146 19.9991 12.0032C20.0098 11.8084 19.8632 11.6415 19.6712 11.63Z" fill="white"/>
<path d="M18.2682 15.1356C18.0634 14.9995 17.7888 15.0576 17.6546 15.2653C17.5204 15.473 17.5776 15.7517 17.7823 15.8878C17.9869 16.024 18.2616 15.9661 18.3959 15.7585C18.4604 15.6587 18.4832 15.537 18.4593 15.4202C18.4353 15.3033 18.3666 15.201 18.2682 15.1356Z" fill="white"/>
<path d="M8.37952 18.4364C8.21864 18.3293 8.00264 18.3748 7.89704 18.538C7.79144 18.7012 7.83622 18.9204 7.99707 19.0275C8.15792 19.1347 8.37394 19.0893 8.47959 18.9261C8.53035 18.8477 8.54833 18.7521 8.52956 18.6602C8.51079 18.5684 8.45682 18.4879 8.37952 18.4364Z" fill="white"/>
<path d="M15.6838 18.3994C15.5579 18.4637 15.4827 18.5987 15.4932 18.7413C15.5036 18.8839 15.5977 19.0061 15.7316 19.0509C15.8655 19.0956 16.0127 19.0542 16.1047 18.9458C16.1967 18.8374 16.2153 18.6835 16.1518 18.5558C16.1103 18.472 16.0376 18.4084 15.9498 18.3791C15.862 18.3497 15.7663 18.357 15.6838 18.3994Z" fill="white"/>
<path d="M11.6365 14.8316C11.9067 14.4131 11.8624 13.8619 11.5289 13.4934C11.1953 13.1249 10.6577 13.0332 10.2238 13.2709C9.78986 13.5085 9.5704 14.0148 9.69103 14.4999C9.81166 14.9851 10.2416 15.3251 10.7347 15.3255C11.0984 15.3268 11.4379 15.1408 11.6365 14.8316Z" fill="white"/>
<path d="M9.48299 16.5093C9.23439 16.3443 8.90104 16.4149 8.73833 16.6671C8.57562 16.9193 8.64514 17.2575 8.89363 17.4227C9.14211 17.5878 9.47551 17.5174 9.63838 17.2654C9.80107 17.013 9.73152 16.6746 9.48299 16.5093Z" fill="white"/>
<path d="M11.9938 18.6013C11.7494 18.5872 11.5401 18.7767 11.5261 19.0247C11.5122 19.2726 11.6989 19.4851 11.9433 19.4993C12.1876 19.5135 12.3971 19.324 12.4111 19.0761C12.4179 18.957 12.3777 18.84 12.2994 18.751C12.2212 18.6619 12.1112 18.6081 11.9938 18.6013Z" fill="white"/>
<path d="M11.9999 15.7717C11.744 15.7559 11.5039 15.8982 11.3919 16.1322C11.2798 16.3662 11.3178 16.6456 11.4881 16.8401C11.6585 17.0345 11.9276 17.1055 12.1697 17.02C12.4119 16.9345 12.5793 16.7093 12.5938 16.4495C12.6139 16.0961 12.3482 15.7928 11.9999 15.7717Z" fill="white"/>
<path d="M14.5898 16.4656C14.3955 16.5656 14.2797 16.7747 14.2965 16.9951C14.3134 17.2156 14.4596 17.4041 14.6668 17.4725C14.8741 17.5409 15.1016 17.4759 15.2431 17.3077C15.3846 17.1395 15.4123 16.9014 15.3132 16.7044C15.2486 16.5753 15.1361 16.4776 15.0004 16.4328C14.8647 16.388 14.7169 16.3998 14.5898 16.4656Z" fill="white"/>
</svg>
