<svg width="24" height="25" viewBox="0 0 24 25" fill="none" xmlns="http://www.w3.org/2000/svg">
<g clip-path="url(#clip0_41_3212)">
<path d="M12 24.3291C18.6274 24.3291 24 18.9565 24 12.3291C24 5.70168 18.6274 0.329102 12 0.329102C5.37258 0.329102 0 5.70168 0 12.3291C0 18.9565 5.37258 24.3291 12 24.3291Z" fill="#F0F0F0"/>
<path d="M11.4785 12.3289H24.0002C24.0002 11.2458 23.8559 10.1966 23.5868 9.19849H11.4785V12.3289Z" fill="#D80027"/>
<path d="M11.4785 6.0682H22.239C21.5044 4.86951 20.5651 3.80999 19.47 2.93774H11.4785V6.0682Z" fill="#D80027"/>
<path d="M12.0011 24.3291C14.8252 24.3291 17.421 23.353 19.4709 21.7205H4.53125C6.58109 23.353 9.17689 24.3291 12.0011 24.3291Z" fill="#D80027"/>
<path d="M1.76195 18.5899H22.2394C22.8291 17.6276 23.2865 16.5758 23.5873 15.4595H0.414062C0.714859 16.5758 1.17222 17.6276 1.76195 18.5899Z" fill="#D80027"/>
<path d="M5.55863 2.20307H6.65217L5.63498 2.94205L6.02353 4.13779L5.00639 3.3988L3.98925 4.13779L4.32487 3.1048C3.42928 3.85082 2.64431 4.72485 1.99744 5.69873H2.34783L1.70034 6.16912C1.59947 6.3374 1.50272 6.50835 1.41 6.68184L1.71919 7.63345L1.14234 7.21434C0.998953 7.51813 0.867797 7.82877 0.749906 8.14588L1.09055 9.19438H2.34783L1.33064 9.93337L1.71919 11.1291L0.702047 10.3901L0.0927656 10.8328C0.0317812 11.323 0 11.8223 0 12.3291H12C12 5.70173 12 4.92041 12 0.329102C9.62944 0.329102 7.41961 1.01676 5.55863 2.20307ZM6.02353 11.1291L5.00639 10.3901L3.98925 11.1291L4.3778 9.93337L3.36061 9.19438H4.61789L5.00639 7.99865L5.39489 9.19438H6.65217L5.63498 9.93337L6.02353 11.1291ZM5.63498 6.43771L6.02353 7.63345L5.00639 6.89446L3.98925 7.63345L4.3778 6.43771L3.36061 5.69873H4.61789L5.00639 4.50299L5.39489 5.69873H6.65217L5.63498 6.43771ZM10.3279 11.1291L9.31073 10.3901L8.29359 11.1291L8.68214 9.93337L7.66495 9.19438H8.92223L9.31073 7.99865L9.69923 9.19438H10.9565L9.93933 9.93337L10.3279 11.1291ZM9.93933 6.43771L10.3279 7.63345L9.31073 6.89446L8.29359 7.63345L8.68214 6.43771L7.66495 5.69873H8.92223L9.31073 4.50299L9.69923 5.69873H10.9565L9.93933 6.43771ZM9.93933 2.94205L10.3279 4.13779L9.31073 3.3988L8.29359 4.13779L8.68214 2.94205L7.66495 2.20307H8.92223L9.31073 1.00734L9.69923 2.20307H10.9565L9.93933 2.94205Z" fill="#0052B4"/>
</g>
<defs>
<clipPath id="clip0_41_3212">
<rect width="24" height="24" fill="white" transform="translate(0 0.329102)"/>
</clipPath>
</defs>
</svg>
