<svg width="24" height="25" viewBox="0 0 24 25" fill="none" xmlns="http://www.w3.org/2000/svg">
<g clip-path="url(#clip0_41_1950)">
<path d="M12 24.0586C18.6274 24.0586 24 18.686 24 12.0586C24 5.43118 18.6274 0.0585938 12 0.0585938C5.37258 0.0585938 0 5.43118 0 12.0586C0 18.686 5.37258 24.0586 12 24.0586Z" fill="#F0F0F0"/>
<path d="M23.8984 10.4933H9.39136H9.39131V0.34375C8.28234 0.589656 7.23098 0.988234 6.26086 1.51759V10.4932V10.4933H0.101578C0.0347813 11.0057 0 11.528 0 12.0585C0 12.589 0.0347813 13.1114 0.101578 13.6237H6.26081H6.26086V22.5994C7.23098 23.1287 8.28234 23.5274 9.39131 23.7732V13.6239V13.6238H23.8984C23.9651 13.1114 24 12.589 24 12.0585C24 11.528 23.9651 11.0057 23.8984 10.4933Z" fill="#0052B4"/>
</g>
<defs>
<clipPath id="clip0_41_1950">
<rect width="24" height="24" fill="white" transform="translate(0 0.0585938)"/>
</clipPath>
</defs>
</svg>
