<svg width="24" height="24" viewBox="0 0 24 24" fill="none" xmlns="http://www.w3.org/2000/svg">
<path fill-rule="evenodd" clip-rule="evenodd" d="M24 12C24 18.6274 18.6274 24 12 24C5.37259 24 0 18.6274 0 12C0 5.37259 5.37259 0 12 0C18.6274 0 24 5.37259 24 12Z" fill="#E84142"/>
<path fill-rule="evenodd" clip-rule="evenodd" d="M8.59912 16.7752H6.27027C5.78092 16.7752 5.53918 16.7752 5.39176 16.6808C5.23259 16.5776 5.13529 16.4067 5.1235 16.218C5.11467 16.0441 5.23552 15.8318 5.47727 15.4073L11.2275 5.27171C11.4722 4.84131 11.596 4.62613 11.7522 4.54652C11.9203 4.46106 12.1207 4.46106 12.2888 4.54652C12.445 4.62613 12.5688 4.84131 12.8135 5.27171L13.9956 7.33527L14.0017 7.3458C14.2659 7.80755 14.4 8.04169 14.4585 8.28744C14.5233 8.55571 14.5233 8.8387 14.4585 9.10697C14.3995 9.35461 14.2668 9.59045 13.9986 10.0592L10.9781 15.3985L10.9703 15.4122C10.7043 15.8777 10.5695 16.1136 10.3826 16.2917C10.1792 16.4863 9.93455 16.6278 9.66629 16.7074C9.42161 16.7752 9.14745 16.7752 8.59912 16.7752Z" fill="white"/>
<path fill-rule="evenodd" clip-rule="evenodd" d="M14.4812 16.7754H17.8183C18.3106 16.7754 18.5582 16.7754 18.7056 16.6781C18.8648 16.5749 18.965 16.401 18.9739 16.2123C18.9824 16.0441 18.8641 15.8401 18.6324 15.4403C18.6245 15.4266 18.6165 15.4128 18.6083 15.3987L16.9368 12.5392L16.9178 12.507C16.6829 12.1098 16.5643 11.9092 16.4121 11.8317C16.2441 11.7462 16.0466 11.7462 15.8785 11.8317C15.7252 11.9113 15.6014 12.1206 15.3567 12.5421L13.6912 15.4016L13.6855 15.4115C13.4416 15.8324 13.3198 16.0427 13.3286 16.2153C13.3404 16.4039 13.4376 16.5779 13.5968 16.681C13.7413 16.7754 13.9889 16.7754 14.4812 16.7754Z" fill="white"/>
</svg>
