<svg width="24" height="25" viewBox="0 0 24 25" fill="none" xmlns="http://www.w3.org/2000/svg">
<g clip-path="url(#clip0_41_1682)">
<path d="M12 24.0234C18.6274 24.0234 24 18.6509 24 12.0234C24 5.39602 18.6274 0.0234375 12 0.0234375C5.37258 0.0234375 0 5.39602 0 12.0234C0 18.6509 5.37258 24.0234 12 24.0234Z" fill="#D80027"/>
<path d="M6.56719 7.32617L7.60312 10.5137H10.9547L8.24531 12.4871L9.28125 15.6746L6.56719 13.7059L3.85313 15.6746L4.89375 12.4871L2.17969 10.5137H5.53125L6.56719 7.32617Z" fill="#FFDA44"/>
<path d="M14.227 18.6092L13.4348 17.6342L12.2629 18.0889L12.9426 17.0342L12.1504 16.0545L13.3645 16.3779L14.0488 15.3232L14.1145 16.5795L15.3332 16.9029L14.1566 17.3529L14.227 18.6092Z" fill="#FFDA44"/>
<path d="M15.802 15.7498L16.177 14.5498L15.1504 13.8232L16.4066 13.8045L16.777 12.6045L17.1848 13.7951L18.441 13.7811L17.4332 14.5311L17.8363 15.7217L16.8098 14.9951L15.802 15.7498Z" fill="#FFDA44"/>
<path d="M17.9246 8.83115L17.3715 9.96084L18.2715 10.8374L17.0293 10.6593L16.4762 11.7843L16.2605 10.5468L15.0137 10.3687L16.1293 9.78271L15.9137 8.54053L16.8137 9.41709L17.9246 8.83115Z" fill="#FFDA44"/>
<path d="M14.2602 5.40918L14.1664 6.66074L15.3336 7.13418L14.1102 7.43418L14.0211 8.69043L13.3602 7.62168L12.1367 7.92168L12.9477 6.96074L12.282 5.89668L13.4492 6.37012L14.2602 5.40918Z" fill="#FFDA44"/>
</g>
<defs>
<clipPath id="clip0_41_1682">
<rect width="24" height="24" fill="white" transform="translate(0 0.0234375)"/>
</clipPath>
</defs>
</svg>
