<svg width="56" height="57" viewBox="0 0 56 57" fill="none" xmlns="http://www.w3.org/2000/svg">
<path d="M32.4771 4.14453L32.4547 14.9255L32.4323 25.7064L31.4032 23.2037V23.1973L30.0684 47.1977C31.3808 50.3806 32.0818 52.0812 32.0893 52.0876C32.0967 52.094 32.8425 52.1326 33.7448 52.1711C36.4741 52.2866 39.8597 52.5368 42.4325 52.8128C43.0291 52.877 43.5361 52.909 43.5734 52.8834C43.6107 52.8577 43.6182 41.8842 43.6107 28.4915L43.5884 4.14453H32.4771Z" fill="url(#paint0_linear_0_13634)"/>
<path d="M12.3789 4.11189V28.4846C12.3789 41.8902 12.3938 52.8701 12.4162 52.8893C12.4386 52.9086 13.4006 52.8252 14.5639 52.7161C15.7272 52.607 17.3305 52.4658 18.1285 52.408C19.3514 52.3182 23.0204 52.1193 23.438 52.1128C23.5648 52.1128 23.5723 51.5674 23.5872 41.7875L23.6095 31.4622L24.497 33.6184C24.6312 33.9521 24.6759 34.0547 24.8102 34.382L26.145 10.3879C25.8616 9.7013 26.0108 10.0607 25.6901 9.27777C24.6014 6.62744 23.6767 4.38783 23.6394 4.28515L23.5648 4.10547H12.3789V4.11189Z" fill="url(#paint1_linear_0_13634)"/>
<path d="M12.3789 4.11189L23.6021 31.4813V31.4684L24.4896 33.6246C29.4188 45.6312 32.0662 52.0741 32.0811 52.0869C32.0886 52.0933 32.8343 52.1318 33.7366 52.1703C36.466 52.2858 39.8516 52.5361 42.4244 52.812C43.0135 52.8762 43.5281 52.9083 43.5579 52.8826L32.4316 25.6994V25.7058L31.4025 23.2031C30.3958 20.7581 29.7246 19.1217 25.6753 9.27773C24.5865 6.62743 23.6618 4.38782 23.6245 4.28515L23.5499 4.10547H17.9644L12.3789 4.11189Z" fill="#E30A17"/>
<defs>
<linearGradient id="paint0_linear_0_13634" x1="48.6223" y1="40.5931" x2="30.8382" y2="48.4032" gradientUnits="userSpaceOnUse">
<stop stop-color="#B20610"/>
<stop offset="0.255959" stop-color="#B20610"/>
<stop offset="1" stop-color="#590004"/>
</linearGradient>
<linearGradient id="paint1_linear_0_13634" x1="6.98597" y1="14.799" x2="26.2189" y2="6.45019" gradientUnits="userSpaceOnUse">
<stop stop-color="#B20610"/>
<stop offset="0.255959" stop-color="#B20610"/>
<stop offset="1" stop-color="#590004"/>
</linearGradient>
</defs>
</svg>
