<svg xmlns="http://www.w3.org/2000/svg" xmlns:xlink="http://www.w3.org/1999/xlink" viewBox="0 0 742 479" width="742" height="479" preserveAspectRatio="xMidYMid meet" style="width: 100%; height: 100%; transform: translate3d(0px, 0px, 0px); content-visibility: visible;"><defs><clipPath id="__lottie_element_2"><rect width="742" height="479" x="0" y="0"></rect></clipPath></defs><g clip-path="url(#__lottie_element_2)"><g transform="matrix(1,0,0,1,441.1520080566406,37.36799621582031)" opacity="1" style="display: block;"><g opacity="1" transform="matrix(1,0,0,1,0,0)"><path fill="rgb(213,210,209)" fill-opacity="1" d=" M88.68800354003906,327.5480041503906 C88.47000122070312,366.1319885253906 119.66400146484375,397.52899169921875 158.2480010986328,397.52899169921875 C158.2480010986328,397.52899169921875 242.6020050048828,397.52899169921875 242.6020050048828,397.52899169921875 C242.6020050048828,397.52899169921875 242.6020050048828,398.697998046875 242.6020050048828,398.697998046875 C242.6020050048828,398.697998046875 158.2480010986328,398.697998046875 158.2480010986328,398.697998046875 C119.0250015258789,398.697998046875 87.28500366210938,366.77099609375 87.51899719238281,327.5480041503906 C87.51899719238281,327.5480041503906 87.97100067138672,249.0709991455078 87.97100067138672,249.0709991455078 C87.83100128173828,247.97999572753906 87.78299713134766,246.85699462890625 87.79900360107422,245.718994140625 C87.79900360107422,245.718994140625 88.09500122070312,227.52699279785156 88.09500122070312,227.52699279785156 C88.09500122070312,227.52699279785156 88.12699890136719,222.86500549316406 88.12699890136719,222.86500549316406 C88.18900299072266,211.48500061035156 79.9260025024414,202.0070037841797 69.04499816894531,200.22999572753906 C67.84500122070312,200.41700744628906 66.5979995727539,200.5260009765625 65.33499908447266,200.5260009765625 C65.33499908447266,200.5260009765625 0.5770000219345093,200.5260009765625 0.5770000219345093,200.5260009765625 C0.5770000219345093,200.5260009765625 0.5770000219345093,199.93299865722656 0.5770000219345093,199.93299865722656 C0.5770000219345093,199.93299865722656 0,199.93299865722656 0,199.93299865722656 C0,199.93299865722656 0,198.76400756835938 0,198.76400756835938 C0,198.76400756835938 65.33499908447266,198.76400756835938 65.33499908447266,198.76400756835938 C77.97799682617188,198.76400756835938 88.20500183105469,188.47500610351562 88.12699890136719,175.83200073242188 C88.12699890136719,175.83200073242188 88.12699890136719,175.5050048828125 88.12699890136719,175.5050048828125 C88.12699890136719,175.5050048828125 87.83000183105469,159.447998046875 87.83000183105469,159.447998046875 C87.81400299072266,158.29400634765625 87.87699890136719,157.156005859375 88.01699829101562,156.0489959716797 C88.01699829101562,156.0489959716797 87.51899719238281,71.1500015258789 87.51899719238281,71.1500015258789 C87.28500366210938,31.927000045776367 119.0250015258789,0 158.2480010986328,0 C158.2480010986328,0 242.6020050048828,0 242.6020050048828,0 C242.6020050048828,0 242.6020050048828,1.1690000295639038 242.6020050048828,1.1690000295639038 C242.6020050048828,1.1690000295639038 158.2480010986328,1.1690000295639038 158.2480010986328,1.1690000295639038 C119.66400146484375,1.1690000295639038 88.47000122070312,32.566001892089844 88.68800354003906,71.1500015258789 C88.68800354003906,71.1500015258789 89.15599822998047,151.13900756835938 89.15599822998047,151.13900756835938 C92.41400146484375,141.78500366210938 101.31500244140625,135.05099487304688 111.80699920654297,135.05099487304688 C111.80699920654297,135.05099487304688 242.6020050048828,135.05099487304688 242.6020050048828,135.05099487304688 C242.6020050048828,135.05099487304688 242.6020050048828,136.22000122070312 242.6020050048828,136.22000122070312 C242.6020050048828,136.22000122070312 111.80699920654297,136.22000122070312 111.80699920654297,136.22000122070312 C100.177001953125,136.22000122070312 90.60600280761719,144.9029998779297 89.18699645996094,156.11199951171875 C89.18699645996094,156.11199951171875 89.2959976196289,175.48899841308594 89.2959976196289,175.48899841308594 C89.2959976196289,175.48899841308594 89.31099700927734,176.11300659179688 89.31099700927734,176.11300659179688 C89.51399993896484,187.27499389648438 82.0469970703125,196.7689971923828 71.80500030517578,199.63699340820312 C82.0469970703125,202.49000549316406 89.52999877929688,211.96800231933594 89.34300231933594,223.1300048828125 C89.34300231933594,223.1300048828125 89.26499938964844,227.54200744628906 89.26499938964844,227.54200744628906 C89.26499938964844,227.54200744628906 89.13999938964844,248.9929962158203 89.13999938964844,248.9929962158203 C90.55899810791016,260.2019958496094 100.12999725341797,268.9159851074219 111.76000213623047,268.9159851074219 C111.76000213623047,268.9159851074219 242.6020050048828,268.9159851074219 242.6020050048828,268.9159851074219 C242.6020050048828,268.9159851074219 242.6020050048828,270.08599853515625 242.6020050048828,270.08599853515625 C242.6020050048828,270.08599853515625 111.76000213623047,270.08599853515625 111.76000213623047,270.08599853515625 C101.26799774169922,270.08599853515625 92.36699676513672,263.35101318359375 89.10900115966797,253.98199462890625 C89.10900115966797,253.98199462890625 88.68800354003906,327.5480041503906 88.68800354003906,327.5480041503906z"></path></g><g opacity="1" transform="matrix(1,0,0,1,0,0)"></g></g><g transform="matrix(1,0,0,1,57.652008056640625,37.36799621582031)" opacity="1" style="display: block;"><g opacity="1" transform="matrix(1,0,0,1,0,0)"><path fill="rgb(213,210,209)" fill-opacity="1" d=" M84.33799743652344,398.1210021972656 C122.9219970703125,398.1210021972656 154.1320037841797,366.7239990234375 153.91400146484375,328.1400146484375 C153.91400146484375,328.1400146484375 153.4770050048828,253.9969940185547 153.4770050048828,253.9969940185547 C150.218994140625,263.35101318359375 141.3179931640625,270.08599853515625 130.8260040283203,270.08599853515625 C130.8260040283203,270.08599853515625 0,270.08599853515625 0,270.08599853515625 C0,270.08599853515625 0,268.9159851074219 0,268.9159851074219 C0,268.9159851074219 130.8260040283203,268.9159851074219 130.8260040283203,268.9159851074219 C142.45599365234375,268.9159851074219 152.02699279785156,260.2170104980469 153.4459991455078,249.0240020751953 C153.4459991455078,249.0240020751953 153.3209991455078,227.21499633789062 153.3209991455078,227.21499633789062 C153.3209991455078,227.21499633789062 153.2429962158203,223.1300048828125 153.2429962158203,223.1300048828125 C153.05599975585938,211.96800231933594 160.53900146484375,202.49000549316406 170.781005859375,199.63699340820312 C160.53900146484375,196.7689971923828 153.08700561523438,187.27499389648438 153.2899932861328,176.11300659179688 C153.2899932861328,176.11300659179688 153.2899932861328,175.48899841308594 153.2899932861328,175.48899841308594 C153.2899932861328,175.48899841308594 153.4149932861328,156.11199951171875 153.4149932861328,156.11199951171875 C151.99600219726562,144.9029998779297 142.4250030517578,136.22000122070312 130.7949981689453,136.22000122070312 C130.7949981689453,136.22000122070312 0,136.22000122070312 0,136.22000122070312 C0,136.22000122070312 0,135.05099487304688 0,135.05099487304688 C0,135.05099487304688 130.7949981689453,135.05099487304688 130.7949981689453,135.05099487304688 C141.28700256347656,135.05099487304688 150.18800354003906,141.78500366210938 153.4459991455078,151.13900756835938 C153.4459991455078,151.13900756835938 153.91400146484375,71.1500015258789 153.91400146484375,71.1500015258789 C154.1320037841797,32.566001892089844 122.9219970703125,1.1690000295639038 84.33799743652344,1.1690000295639038 C84.33799743652344,1.1690000295639038 0,1.1690000295639038 0,1.1690000295639038 C0,1.1690000295639038 0,0 0,0 C0,0 84.33799743652344,0 84.33799743652344,0 C123.56099700927734,0 155.31700134277344,31.927000045776367 155.08299255371094,71.1500015258789 C155.08299255371094,71.1500015258789 154.58399963378906,156.0489959716797 154.58399963378906,156.0489959716797 C154.7239990234375,157.156005859375 154.77200317382812,158.29400634765625 154.75599670410156,159.447998046875 C154.75599670410156,159.447998046875 154.45899963378906,175.5050048828125 154.45899963378906,175.5050048828125 C154.45899963378906,175.5050048828125 154.45899963378906,175.83200073242188 154.45899963378906,175.83200073242188 C154.38099670410156,188.47500610351562 164.62399291992188,198.76400756835938 177.26699829101562,198.76400756835938 C177.26699829101562,198.76400756835938 242.6020050048828,198.76400756835938 242.6020050048828,198.76400756835938 C242.6020050048828,198.76400756835938 242.6020050048828,200.5260009765625 242.6020050048828,200.5260009765625 C242.6020050048828,200.5260009765625 177.26699829101562,200.5260009765625 177.26699829101562,200.5260009765625 C164.62399291992188,200.5260009765625 154.38099670410156,210.81500244140625 154.45899963378906,223.45799255371094 C154.45899963378906,223.45799255371094 154.49099731445312,227.21499633789062 154.49099731445312,227.21499633789062 C154.49099731445312,227.21499633789062 154.802001953125,245.718994140625 154.802001953125,245.718994140625 C154.8179931640625,246.85699462890625 154.7550048828125,247.97999572753906 154.61500549316406,249.08700561523438 C154.61500549316406,249.08700561523438 155.08299255371094,328.125 155.08299255371094,328.125 C155.31700134277344,367.3479919433594 123.56099700927734,399.2900085449219 84.33799743652344,399.2900085449219 C84.33799743652344,399.2900085449219 0,399.2900085449219 0,399.2900085449219 C0,399.2900085449219 0,398.1210021972656 0,398.1210021972656 C0,398.1210021972656 84.33799743652344,398.1210021972656 84.33799743652344,398.1210021972656z"></path></g><g opacity="1" transform="matrix(1,0,0,1,0,0)"></g></g><g transform="matrix(1,0,0,1,178.9530029296875,237.01300048828125)" opacity="1" style="display: block;"></g><g transform="matrix(1,0,0,1,178.9530029296875,237.01300048828125)" opacity="1" style="display: block;"></g><g transform="matrix(1,0,0,1,370.7030029296875,237.01300048828125)" opacity="1" style="display: block;"></g><g transform="matrix(1,0,0,1,370.7030029296875,237.01300048828125)" opacity="1" style="display: block;"></g><g transform="matrix(1,0,0,1,328.65399169921875,230.9040069580078)" opacity="1" style="display: block;"><g opacity="1" transform="matrix(1,0,0,1,0,0)"><path fill="rgb(248,248,248)" fill-opacity="1" d=" M5.8460001945495605,0 C9.071999549865723,0 11.692000389099121,2.619999885559082 11.692000389099121,5.8460001945495605 C11.692000389099121,9.071999549865723 9.071999549865723,11.692000389099121 5.8460001945495605,11.692000389099121 C2.619999885559082,11.692000389099121 0,9.071999549865723 0,5.8460001945495605 C0,2.619999885559082 2.619999885559082,0 5.8460001945495605,0z"></path></g><g opacity="1" transform="matrix(1,0,0,1,0,0)"></g></g><g transform="matrix(1,0,0,1,328.65399169921875,230.9040069580078)" opacity="1" style="display: block;"><g opacity="1" transform="matrix(1,0,0,1,0,0)"><path stroke-linecap="round" stroke-linejoin="miter" fill-opacity="0" stroke-miterlimit="4" stroke="rgb(41,35,34)" stroke-opacity="1" stroke-width="1.169" d=" M5.8460001945495605,0 C9.071999549865723,0 11.692000389099121,2.619999885559082 11.692000389099121,5.8460001945495605 C11.692000389099121,9.071999549865723 9.071999549865723,11.692000389099121 5.8460001945495605,11.692000389099121 C2.619999885559082,11.692000389099121 0,9.071999549865723 0,5.8460001945495605 C0,2.619999885559082 2.619999885559082,0 5.8460001945495605,0z"></path></g></g><g transform="matrix(1,0,0,1,334.5,236.75)" opacity="1" style="display: block;"></g><g style="display: block;" transform="matrix(1,0,0,1,334.5,236.75)" opacity="1"></g><g transform="matrix(1,0,0,1,324.90399169921875,231.5290069580078)" opacity="1" style="display: block;"><g opacity="1" transform="matrix(1,0,0,1,0,0)"><path fill="rgb(248,248,248)" fill-opacity="1" d=" M5.8460001945495605,0 C9.071999549865723,0 11.692000389099121,2.619999885559082 11.692000389099121,5.8460001945495605 C11.692000389099121,9.071999549865723 9.071999549865723,11.692000389099121 5.8460001945495605,11.692000389099121 C2.619999885559082,11.692000389099121 0,9.071999549865723 0,5.8460001945495605 C0,2.619999885559082 2.619999885559082,0 5.8460001945495605,0z"></path></g><g opacity="1" transform="matrix(1,0,0,1,0,0)"></g></g><g transform="matrix(1,0,0,1,324.90399169921875,231.5290069580078)" opacity="1" style="display: block;"><g opacity="1" transform="matrix(1,0,0,1,0,0)"><path stroke-linecap="round" stroke-linejoin="miter" fill-opacity="0" stroke-miterlimit="4" stroke="rgb(41,35,34)" stroke-opacity="1" stroke-width="1.169" d=" M5.8460001945495605,0 C9.071999549865723,0 11.692000389099121,2.619999885559082 11.692000389099121,5.8460001945495605 C11.692000389099121,9.071999549865723 9.071999549865723,11.692000389099121 5.8460001945495605,11.692000389099121 C2.619999885559082,11.692000389099121 0,9.071999549865723 0,5.8460001945495605 C0,2.619999885559082 2.619999885559082,0 5.8460001945495605,0z"></path></g></g><g transform="matrix(1,0,0,1,330.75,237.375)" opacity="1" style="display: block;"></g><g style="display: block;" transform="matrix(1,0,0,1,330.75,237.375)" opacity="1"></g><g transform="matrix(1,0,0,1,320.40399169921875,231.4040069580078)" opacity="1" style="display: block;"><g opacity="1" transform="matrix(1,0,0,1,0,0)"><path fill="rgb(248,248,248)" fill-opacity="1" d=" M5.8460001945495605,0 C9.071999549865723,0 11.692000389099121,2.619999885559082 11.692000389099121,5.8460001945495605 C11.692000389099121,9.071999549865723 9.071999549865723,11.692000389099121 5.8460001945495605,11.692000389099121 C2.619999885559082,11.692000389099121 0,9.071999549865723 0,5.8460001945495605 C0,2.619999885559082 2.619999885559082,0 5.8460001945495605,0z"></path></g><g opacity="1" transform="matrix(1,0,0,1,0,0)"></g></g><g transform="matrix(1,0,0,1,320.40399169921875,231.4040069580078)" opacity="1" style="display: block;"><g opacity="1" transform="matrix(1,0,0,1,0,0)"><path stroke-linecap="round" stroke-linejoin="miter" fill-opacity="0" stroke-miterlimit="4" stroke="rgb(41,35,34)" stroke-opacity="1" stroke-width="1.169" d=" M5.8460001945495605,0 C9.071999549865723,0 11.692000389099121,2.619999885559082 11.692000389099121,5.8460001945495605 C11.692000389099121,9.071999549865723 9.071999549865723,11.692000389099121 5.8460001945495605,11.692000389099121 C2.619999885559082,11.692000389099121 0,9.071999549865723 0,5.8460001945495605 C0,2.619999885559082 2.619999885559082,0 5.8460001945495605,0z"></path></g></g><g transform="matrix(1,0,0,1,326.25,237.25)" opacity="1" style="display: block;"></g><g style="display: block;" transform="matrix(1,0,0,1,326.25,237.25)" opacity="1"></g><g transform="matrix(1,0,0,1,307.40399169921875,230.9040069580078)" opacity="1" style="display: block;"><g opacity="1" transform="matrix(1,0,0,1,0,0)"><path fill="rgb(248,248,248)" fill-opacity="1" d=" M5.8460001945495605,0 C9.071999549865723,0 11.692000389099121,2.619999885559082 11.692000389099121,5.8460001945495605 C11.692000389099121,9.071999549865723 9.071999549865723,11.692000389099121 5.8460001945495605,11.692000389099121 C2.619999885559082,11.692000389099121 0,9.071999549865723 0,5.8460001945495605 C0,2.619999885559082 2.619999885559082,0 5.8460001945495605,0z"></path></g><g opacity="1" transform="matrix(1,0,0,1,0,0)"></g></g><g transform="matrix(1,0,0,1,307.40399169921875,230.9040069580078)" opacity="1" style="display: block;"><g opacity="1" transform="matrix(1,0,0,1,0,0)"><path stroke-linecap="round" stroke-linejoin="miter" fill-opacity="0" stroke-miterlimit="4" stroke="rgb(41,35,34)" stroke-opacity="1" stroke-width="1.169" d=" M5.8460001945495605,0 C9.071999549865723,0 11.692000389099121,2.619999885559082 11.692000389099121,5.8460001945495605 C11.692000389099121,9.071999549865723 9.071999549865723,11.692000389099121 5.8460001945495605,11.692000389099121 C2.619999885559082,11.692000389099121 0,9.071999549865723 0,5.8460001945495605 C0,2.619999885559082 2.619999885559082,0 5.8460001945495605,0z"></path></g></g><g transform="matrix(1,0,0,1,313.25,236.75)" opacity="1" style="display: block;"></g><g transform="matrix(1,0,0,1,313.25,236.75)" opacity="1" style="display: block;"></g><g transform="matrix(1,0,0,1,513.6279907226562,227.52301025390625)" opacity="1" style="display: block;"><g opacity="1" transform="matrix(1,0,0,1,0,0)"><path fill="rgb(248,248,248)" fill-opacity="1" d=" M5.8460001945495605,0 C9.071999549865723,0 11.692000389099121,2.619999885559082 11.692000389099121,5.8460001945495605 C11.692000389099121,9.071999549865723 9.071999549865723,11.692000389099121 5.8460001945495605,11.692000389099121 C2.619999885559082,11.692000389099121 0,9.071999549865723 0,5.8460001945495605 C0,2.619999885559082 2.619999885559082,0 5.8460001945495605,0z"></path></g><g opacity="1" transform="matrix(1,0,0,1,0,0)"></g></g><g transform="matrix(1,0,0,1,513.6279907226562,227.52301025390625)" opacity="1" style="display: block;"><g opacity="1" transform="matrix(1,0,0,1,0,0)"><path stroke-linecap="round" stroke-linejoin="miter" fill-opacity="0" stroke-miterlimit="4" stroke="rgb(41,35,34)" stroke-opacity="1" stroke-width="1.169" d=" M5.8460001945495605,0 C9.071999549865723,0 11.692000389099121,2.619999885559082 11.692000389099121,5.8460001945495605 C11.692000389099121,9.071999549865723 9.071999549865723,11.692000389099121 5.8460001945495605,11.692000389099121 C2.619999885559082,11.692000389099121 0,9.071999549865723 0,5.8460001945495605 C0,2.619999885559082 2.619999885559082,0 5.8460001945495605,0z"></path></g></g><g transform="matrix(1,0,0,1,519.4739990234375,233.36900329589844)" opacity="1" style="display: block;"></g><g style="display: block;" transform="matrix(1,0,0,1,519.4739990234375,233.36900329589844)" opacity="1"></g><g transform="matrix(1,0,0,1,458.4700622558594,230.6540069580078)" opacity="1" style="display: block;"><g opacity="1" transform="matrix(1,0,0,1,0,0)"><path fill="rgb(248,248,248)" fill-opacity="1" d=" M5.8460001945495605,0 C9.071999549865723,0 11.692000389099121,2.619999885559082 11.692000389099121,5.8460001945495605 C11.692000389099121,9.071999549865723 9.071999549865723,11.692000389099121 5.8460001945495605,11.692000389099121 C2.619999885559082,11.692000389099121 0,9.071999549865723 0,5.8460001945495605 C0,2.619999885559082 2.619999885559082,0 5.8460001945495605,0z"></path></g><g opacity="1" transform="matrix(1,0,0,1,0,0)"></g></g><g transform="matrix(1,0,0,1,458.4700622558594,230.6540069580078)" opacity="1" style="display: block;"><g opacity="1" transform="matrix(1,0,0,1,0,0)"><path stroke-linecap="round" stroke-linejoin="miter" fill-opacity="0" stroke-miterlimit="4" stroke="rgb(41,35,34)" stroke-opacity="1" stroke-width="1.169" d=" M5.8460001945495605,0 C9.071999549865723,0 11.692000389099121,2.619999885559082 11.692000389099121,5.8460001945495605 C11.692000389099121,9.071999549865723 9.071999549865723,11.692000389099121 5.8460001945495605,11.692000389099121 C2.619999885559082,11.692000389099121 0,9.071999549865723 0,5.8460001945495605 C0,2.619999885559082 2.619999885559082,0 5.8460001945495605,0z"></path></g></g><g transform="matrix(1,0,0,1,464.3160705566406,236.5)" opacity="1" style="display: block;"></g><g style="display: block;" transform="matrix(1,0,0,1,464.3160705566406,236.5)" opacity="1"></g><g transform="matrix(1,0,0,1,430.6043701171875,231.1540069580078)" opacity="1" style="display: block;"><g opacity="1" transform="matrix(1,0,0,1,0,0)"><path fill="rgb(248,248,248)" fill-opacity="1" d=" M5.8460001945495605,0 C9.071999549865723,0 11.692000389099121,2.619999885559082 11.692000389099121,5.8460001945495605 C11.692000389099121,9.071999549865723 9.071999549865723,11.692000389099121 5.8460001945495605,11.692000389099121 C2.619999885559082,11.692000389099121 0,9.071999549865723 0,5.8460001945495605 C0,2.619999885559082 2.619999885559082,0 5.8460001945495605,0z"></path></g><g opacity="1" transform="matrix(1,0,0,1,0,0)"></g></g><g transform="matrix(1,0,0,1,430.6043701171875,231.1540069580078)" opacity="1" style="display: block;"><g opacity="1" transform="matrix(1,0,0,1,0,0)"><path stroke-linecap="round" stroke-linejoin="miter" fill-opacity="0" stroke-miterlimit="4" stroke="rgb(41,35,34)" stroke-opacity="1" stroke-width="1.169" d=" M5.8460001945495605,0 C9.071999549865723,0 11.692000389099121,2.619999885559082 11.692000389099121,5.8460001945495605 C11.692000389099121,9.071999549865723 9.071999549865723,11.692000389099121 5.8460001945495605,11.692000389099121 C2.619999885559082,11.692000389099121 0,9.071999549865723 0,5.8460001945495605 C0,2.619999885559082 2.619999885559082,0 5.8460001945495605,0z"></path></g></g><g transform="matrix(1,0,0,1,436.45037841796875,237)" opacity="1" style="display: block;"></g><g style="display: block;" transform="matrix(1,0,0,1,436.45037841796875,237)" opacity="1"></g><g transform="matrix(1,0,0,1,420.55560302734375,231.4040069580078)" opacity="1" style="display: block;"><g opacity="1" transform="matrix(1,0,0,1,0,0)"><path fill="rgb(248,248,248)" fill-opacity="1" d=" M5.8460001945495605,0 C9.071999549865723,0 11.692000389099121,2.619999885559082 11.692000389099121,5.8460001945495605 C11.692000389099121,9.071999549865723 9.071999549865723,11.692000389099121 5.8460001945495605,11.692000389099121 C2.619999885559082,11.692000389099121 0,9.071999549865723 0,5.8460001945495605 C0,2.619999885559082 2.619999885559082,0 5.8460001945495605,0z"></path></g><g opacity="1" transform="matrix(1,0,0,1,0,0)"></g></g><g transform="matrix(1,0,0,1,420.55560302734375,231.4040069580078)" opacity="1" style="display: block;"><g opacity="1" transform="matrix(1,0,0,1,0,0)"><path stroke-linecap="round" stroke-linejoin="miter" fill-opacity="0" stroke-miterlimit="4" stroke="rgb(41,35,34)" stroke-opacity="1" stroke-width="1.169" d=" M5.8460001945495605,0 C9.071999549865723,0 11.692000389099121,2.619999885559082 11.692000389099121,5.8460001945495605 C11.692000389099121,9.071999549865723 9.071999549865723,11.692000389099121 5.8460001945495605,11.692000389099121 C2.619999885559082,11.692000389099121 0,9.071999549865723 0,5.8460001945495605 C0,2.619999885559082 2.619999885559082,0 5.8460001945495605,0z"></path></g></g><g transform="matrix(1,0,0,1,426.401611328125,237.25)" opacity="1" style="display: block;"></g><g style="display: block;" transform="matrix(1,0,0,1,426.401611328125,237.25)" opacity="1"></g></g></svg>